<svg width="20" height="23" viewBox="0 0 20 23" fill="none" xmlns="http://www.w3.org/2000/svg">
<g clip-path="url(#clip0_3301_71)">
<path d="M11.0488 2.38335V2.79199L11.4493 2.87334C14.3577 3.4642 16.5488 6.03765 16.5488 9.12085V9.92866C16.5488 12.0754 17.3374 14.1397 18.7586 15.7431L18.7596 15.7442L19.0762 16.0993C19.0764 16.0996 19.0767 16.0999 19.0769 16.1001C19.3089 16.3631 19.3638 16.7286 19.2229 17.0402C19.0798 17.3567 18.7674 17.5583 18.4238 17.5583H1.92381C1.57945 17.5583 1.26688 17.3561 1.12567 17.0415C0.985064 16.7283 1.03992 16.3621 1.27028 16.0999C1.27062 16.0995 1.27096 16.0991 1.2713 16.0987L1.58768 15.7446L1.58879 15.7434C3.01209 14.1396 3.79881 12.0752 3.79881 9.92866V9.12085C3.79881 6.03501 5.95367 3.46427 8.89719 2.87358L9.29881 2.79298V2.38335V1.55835C9.29881 1.07493 9.68972 0.68335 10.1738 0.68335C10.6579 0.68335 11.0488 1.07493 11.0488 1.55835V2.38335ZM10.1738 21.6833C9.5748 21.6833 9.00192 21.4473 8.58088 21.0263C8.2846 20.73 8.07848 20.3375 7.98338 19.9333H12.3643C12.2691 20.3375 12.063 20.73 11.7667 21.0263C11.3483 21.4448 10.7379 21.6833 10.1738 21.6833Z" stroke="#DBA232"/>
</g>
<defs>
<clipPath id="clip0_3301_71">
<rect width="19.25" height="22" fill="white" transform="translate(0.548828 0.18335)"/>
</clipPath>
</defs>
</svg>
