<svg width="22" height="16" viewBox="0 0 22 16" fill="none" xmlns="http://www.w3.org/2000/svg">
<g clip-path="url(#clip0_3256_13)">
<path d="M1.06178 8.34764C0.978432 8.12311 0.978432 7.87614 1.06178 7.65161C1.8735 5.6834 3.25137 4.00053 5.02068 2.81635C6.79 1.63216 8.87109 1 11.0001 1C13.1292 1 15.2102 1.63216 16.9796 2.81635C18.7489 4.00053 20.1267 5.6834 20.9385 7.65161C21.0218 7.87614 21.0218 8.12311 20.9385 8.34764C20.1267 10.3159 18.7489 11.9987 16.9796 13.1829C15.2102 14.3671 13.1292 14.9993 11.0001 14.9993C8.87109 14.9993 6.79 14.3671 5.02068 13.1829C3.25137 11.9987 1.8735 10.3159 1.06178 8.34764Z" stroke="#858585" stroke-width="2.00007" stroke-linecap="round" stroke-linejoin="round"/>
<path d="M10.9999 11.0002C12.6568 11.0002 14 9.65702 14 8.0001C14 6.34319 12.6568 5 10.9999 5C9.34295 5 7.99976 6.34319 7.99976 8.0001C7.99976 9.65702 9.34295 11.0002 10.9999 11.0002Z" stroke="#858585" stroke-width="2.00007" stroke-linecap="round" stroke-linejoin="round"/>
</g>
<defs>
<clipPath id="clip0_3256_13">
<rect width="22" height="16" fill="white"/>
</clipPath>
</defs>
</svg>
