<svg width="16" height="16" viewBox="0 0 16 16" fill="none" xmlns="http://www.w3.org/2000/svg">
<g id="Comment Icon">
<path id="Vector" opacity="0.4" d="M0.39502 2.55409V13.4459C0.39502 14.6474 1.37188 15.6243 2.57338 15.6243H13.4652C14.6667 15.6243 15.6436 14.6474 15.6436 13.4459V2.55409C15.6436 1.35259 14.6667 0.375732 13.4652 0.375732H2.57338C1.37188 0.375732 0.39502 1.35259 0.39502 2.55409ZM3.04309 7.00953C3.04309 6.34581 3.29156 5.67868 3.7919 5.17153C4.29225 4.66438 4.94575 4.40911 5.60267 4.40911C6.25958 4.40911 6.91309 4.66438 7.41343 5.17153C7.61425 5.37575 7.81507 5.57998 8.01588 5.7842C8.2167 5.57998 8.41752 5.37575 8.61834 5.17153C9.11868 4.66438 9.77219 4.40911 10.4291 4.40911C11.086 4.40911 11.7395 4.66438 12.2399 5.17153C12.7402 5.67868 12.9887 6.34581 12.9887 7.00953C12.9887 7.67325 12.7402 8.34037 12.2399 8.84752L8.78512 12.3601C8.57409 12.5746 8.29839 12.6801 8.01929 12.6801C7.74018 12.6801 7.46449 12.5746 7.25346 12.3601L3.79531 8.84752C3.29496 8.34037 3.04649 7.67325 3.04649 7.00953H3.04309Z" fill="#858585"/>
<path id="Vector_2" d="M3.51013 4.91282C2.44194 5.99554 2.44194 7.75407 3.51013 8.8368L7.20158 12.5864C7.42685 12.8153 7.72115 12.9279 8.01908 12.9279C8.31701 12.9279 8.61131 12.8153 8.83658 12.5864L12.528 8.8368C13.5962 7.75407 13.5962 5.99554 12.528 4.91282C11.4598 3.83009 9.73037 3.83009 8.66218 4.91282L8.01908 5.56681L7.37598 4.91282C6.30779 3.83009 4.57833 3.83009 3.51013 4.91282Z" fill="#858585"/>
</g>
</svg>
