<svg width="22" height="20" viewBox="0 0 22 20" fill="none" xmlns="http://www.w3.org/2000/svg">
<g clip-path="url(#clip0_86_687)">
<g filter="url(#filter0_d_86_687)">
<path d="M14.4979 6.09043L14.6134 6.32801L14.8747 6.36656L20.4872 7.19458L20.4895 7.19491C20.7645 7.23419 20.9994 7.42963 21.089 7.69967C21.1775 7.97044 21.1066 8.26535 20.9033 8.46965C20.9029 8.47014 20.9024 8.47062 20.9019 8.47111L16.8355 12.4594L16.6494 12.642L16.6925 12.8991L17.6533 18.6244C17.7006 18.9087 17.584 19.1931 17.3532 19.357L17.3512 19.3584C17.1179 19.5257 16.8102 19.5457 16.5615 19.4132L11.5467 16.7379L11.3113 16.6123L11.0759 16.738L6.06693 19.4123C6.06658 19.4125 6.06623 19.4127 6.06588 19.4129C5.81175 19.5465 5.50382 19.5249 5.27156 19.3584C5.04049 19.1927 4.92392 18.9073 4.97275 18.6284L4.97333 18.6249L5.93415 12.8991L5.9773 12.6419L5.79112 12.4593L1.72236 8.46945C1.51985 8.26611 1.44896 7.97132 1.53755 7.69892C1.62592 7.4299 1.85897 7.23446 2.13744 7.19498L2.13744 7.19499L2.14028 7.19457L7.74817 6.36655L8.00924 6.328L8.12472 6.09071L10.64 0.922225L10.641 0.920201C10.7642 0.664061 11.0259 0.5 11.3114 0.5C11.6017 0.5 11.8628 0.664857 11.9857 0.920204L11.9865 0.921948L14.4979 6.09043Z" stroke="#DBA232" shape-rendering="crispEdges"/>
</g>
</g>
<defs>
<filter id="filter0_d_86_687" x="-3" y="0" width="28.6265" height="28" filterUnits="userSpaceOnUse" color-interpolation-filters="sRGB">
<feFlood flood-opacity="0" result="BackgroundImageFix"/>
<feColorMatrix in="SourceAlpha" type="matrix" values="0 0 0 0 0 0 0 0 0 0 0 0 0 0 0 0 0 0 127 0" result="hardAlpha"/>
<feOffset dy="4"/>
<feGaussianBlur stdDeviation="2"/>
<feComposite in2="hardAlpha" operator="out"/>
<feColorMatrix type="matrix" values="0 0 0 0 0 0 0 0 0 0 0 0 0 0 0 0 0 0 0.25 0"/>
<feBlend mode="normal" in2="BackgroundImageFix" result="effect1_dropShadow_86_687"/>
<feBlend mode="normal" in="SourceGraphic" in2="effect1_dropShadow_86_687" result="shape"/>
</filter>
<clipPath id="clip0_86_687">
<rect width="22" height="20" fill="white"/>
</clipPath>
</defs>
</svg>
