<svg width="20" height="20" viewBox="0 0 20 20" fill="none" xmlns="http://www.w3.org/2000/svg">
<g clip-path="url(#clip0_86_696)">
<g filter="url(#filter0_d_86_696)">
<path d="M18.902 6.68121L18.902 6.68123L18.9042 6.68694C18.9511 6.80905 18.9196 6.97643 18.7865 7.10069C18.786 7.10111 18.7856 7.10154 18.7851 7.10197L17.097 8.638L16.9035 8.8141L16.9379 9.0735C16.9781 9.37719 16.9999 9.68726 16.9999 10C16.9999 10.3127 16.9781 10.6228 16.9379 10.9265L16.9035 11.1859L17.097 11.362L18.7851 12.898C18.7856 12.8985 18.786 12.8989 18.7865 12.8993C18.9196 13.0236 18.9511 13.191 18.9042 13.3131L18.9042 13.313L18.902 13.3188C18.7397 13.7578 18.5441 14.1827 18.3224 14.586L18.1435 14.8943C17.9004 15.2992 17.6272 15.6835 17.3269 16.0508C17.2304 16.163 17.0671 16.2117 16.9054 16.1603L14.7303 15.4651L14.4809 15.3854L14.2733 15.545C13.7899 15.9166 13.2138 16.2336 12.6568 16.4803L12.4251 16.583L12.3709 16.8306L11.8829 19.0595C11.8829 19.0597 11.8828 19.0599 11.8828 19.06C11.8525 19.1955 11.7483 19.3175 11.553 19.3742C11.0497 19.4567 10.5303 19.5 9.96477 19.5C9.47014 19.5 8.95185 19.457 8.44681 19.3742C8.25159 19.3175 8.1474 19.1956 8.11706 19.0601C8.11702 19.0599 8.11697 19.0597 8.11692 19.0595L7.62898 16.8306L7.57334 16.5764L7.33327 16.4761C6.75608 16.235 6.2156 15.9209 5.72651 15.545L5.51891 15.3854L5.2695 15.4652L3.0966 16.1601C3.09648 16.1601 3.09635 16.1601 3.09622 16.1602C2.93016 16.2126 2.7668 16.1608 2.67528 16.0522C2.37436 15.6847 2.10081 15.3001 1.85733 14.8947L1.67861 14.5854C1.45501 14.1834 1.2599 13.7584 1.09586 13.3177L1.09516 13.3159C1.04757 13.1896 1.08069 13.0219 1.21292 12.9001C1.21312 12.8999 1.21332 12.8997 1.21352 12.8995L2.90184 11.3618L3.09518 11.1858L3.06083 10.9265C3.02073 10.624 2.99993 10.3139 2.99993 10C2.99993 9.6861 3.02073 9.37601 3.06083 9.0735L3.09518 8.81425L2.90184 8.63815L1.21352 7.10048C1.21332 7.1003 1.21312 7.10012 1.21292 7.09994C1.08091 6.9783 1.04688 6.81376 1.09583 6.68231L1.09585 6.68225C1.25983 6.24178 1.45534 5.81664 1.67881 5.41428L1.85697 5.10527C2.1012 4.69928 2.37493 4.31459 2.67562 3.94933C2.76648 3.83994 2.929 3.78805 3.09559 3.84118C3.0956 3.84119 3.09561 3.84119 3.09562 3.84119L5.26981 4.53493L5.51964 4.61465L5.72725 4.45444C6.21595 4.07735 6.75563 3.76378 7.33153 3.52576L7.57309 3.42593L7.62898 3.1706L8.11713 0.940757C8.11715 0.940647 8.11718 0.940536 8.1172 0.940426C8.15546 0.767323 8.28165 0.653642 8.42179 0.630336L8.42228 0.630254C8.93408 0.544621 9.46117 0.5 9.99992 0.5C10.5387 0.5 11.0658 0.544621 11.5776 0.630254L11.5781 0.630335C11.7183 0.653657 11.8446 0.767468 11.8827 0.940757L12.3709 3.1706L12.4253 3.41939L12.6586 3.52162C13.2142 3.76511 13.7896 4.08176 14.2726 4.45444L14.4802 4.61461L14.7299 4.53496L16.9057 3.84122L16.9064 3.84099C17.0684 3.78907 17.2307 3.83782 17.3265 3.95071C17.6266 4.31586 17.9 4.70026 18.1436 5.10574L18.3224 5.41399C18.5441 5.81727 18.7397 6.24223 18.902 6.68121ZM9.99992 13.625C12.0063 13.625 13.6249 11.999 13.6249 9.96484C13.6249 8.00095 12.0063 6.33984 9.99992 6.33984C7.99358 6.33984 6.37493 8.00095 6.37493 9.96484C6.37493 11.999 7.99358 13.625 9.99992 13.625Z" stroke="#DBA232" shape-rendering="crispEdges"/>
</g>
</g>
<defs>
<filter id="filter0_d_86_696" x="-3.42578" y="0" width="26.8511" height="28" filterUnits="userSpaceOnUse" color-interpolation-filters="sRGB">
<feFlood flood-opacity="0" result="BackgroundImageFix"/>
<feColorMatrix in="SourceAlpha" type="matrix" values="0 0 0 0 0 0 0 0 0 0 0 0 0 0 0 0 0 0 127 0" result="hardAlpha"/>
<feOffset dy="4"/>
<feGaussianBlur stdDeviation="2"/>
<feComposite in2="hardAlpha" operator="out"/>
<feColorMatrix type="matrix" values="0 0 0 0 0 0 0 0 0 0 0 0 0 0 0 0 0 0 0.25 0"/>
<feBlend mode="normal" in2="BackgroundImageFix" result="effect1_dropShadow_86_696"/>
<feBlend mode="normal" in="SourceGraphic" in2="effect1_dropShadow_86_696" result="shape"/>
</filter>
<clipPath id="clip0_86_696">
<rect width="20" height="20" fill="white"/>
</clipPath>
</defs>
</svg>
