<svg width="133" height="133" viewBox="0 0 133 133" fill="none" xmlns="http://www.w3.org/2000/svg">
<g clip-path="url(#clip0_3022_165)">
<path opacity="0.4" d="M1.22007 48.2286C-0.545031 50.6167 -0.363329 53.9133 1.60944 56.1197L61.8307 122.571C62.9988 123.869 64.686 124.621 66.4511 124.621C68.2162 124.621 69.8775 123.869 71.0715 122.571L131.293 56.1197C132.357 54.9256 132.902 53.4461 132.902 51.9405C132.902 50.6427 132.513 49.3448 131.682 48.2546L102.61 8.79928C101.442 7.16396 99.5728 6.22949 97.6 6.22949H35.3022C33.3294 6.22949 31.4605 7.16396 30.2924 8.77332L1.22007 48.2286ZM14.5882 51.5252C14.6141 51.3954 14.6401 51.2656 14.692 51.1618C14.7958 50.9282 14.9256 50.7205 15.0813 50.5129C15.4188 50.1495 15.886 49.8899 16.4311 49.838C29.1762 48.7737 41.8954 47.7095 54.6405 46.6452L39.7409 21.8299C39.1958 20.9214 39.4294 19.7274 40.286 19.1044C41.1426 18.4814 42.3366 18.5852 43.0634 19.364C50.8507 27.8001 58.6639 36.2622 66.4511 44.6984C74.2383 36.2622 82.0515 27.8001 89.8387 19.364C90.5655 18.5852 91.7596 18.4814 92.6162 19.1044C93.4728 19.7274 93.7064 20.9214 93.1613 21.8299C88.2034 30.1103 83.2196 38.3907 78.2617 46.6452C91.0068 47.7095 103.726 48.7737 116.471 49.838C117.535 49.9158 118.366 50.8244 118.366 51.9146C118.366 53.0048 117.535 53.8873 116.471 53.9912C99.8583 55.3669 83.2456 56.7686 66.6328 58.1444C66.5809 58.1444 66.529 58.1444 66.4511 58.1444C66.3732 58.1444 66.3473 58.1444 66.2694 58.1444C49.6566 56.7686 33.0439 55.3669 16.4311 53.9912C15.886 53.9392 15.4188 53.7056 15.0813 53.3163C14.8996 53.1346 14.7699 52.9009 14.666 52.6673C14.6141 52.5375 14.5881 52.4337 14.5622 52.3039C14.5622 52.252 14.5362 52.1741 14.5362 52.1222C14.5362 52.0703 14.5362 51.9924 14.5362 51.8886C14.5362 51.8367 14.5362 51.7848 14.5362 51.7069C14.5362 51.629 14.5622 51.5771 14.5622 51.5252H14.5882Z" fill="#323232"/>
<path d="M43.0633 19.364C42.3365 18.5852 41.1425 18.4814 40.2859 19.1044C39.4293 19.7274 39.1957 20.9214 39.7408 21.8299L54.6404 46.6452L16.431 49.838C15.3668 49.9158 14.5361 50.8244 14.5361 51.9146C14.5361 53.0048 15.3668 53.8873 16.431 53.9912L66.2693 58.1443C66.3731 58.1443 66.5029 58.1443 66.6067 58.1443L116.445 53.9912C117.509 53.9133 118.34 53.0048 118.34 51.9146C118.34 50.8244 117.509 49.9418 116.445 49.838L78.2616 46.6712L93.1612 21.8559C93.7063 20.9474 93.4727 19.7533 92.6161 19.1303C91.7595 18.5074 90.5654 18.6112 89.8386 19.3899L66.451 44.6984L43.0633 19.364Z" fill="#323232"/>
</g>
<defs>
<clipPath id="clip0_3022_165">
<rect width="132.902" height="132.902" fill="white"/>
</clipPath>
</defs>
</svg>
