<svg width="22" height="20" viewBox="0 0 22 20" fill="none" xmlns="http://www.w3.org/2000/svg">
<g clip-path="url(#clip0_3301_2)">
<path d="M21.4959 9.92114L21.4924 9.9507V9.98047C21.4924 10.41 21.1408 10.7344 20.7701 10.7344H19.5479H19.0458L19.0479 11.2365L19.0747 17.4883C19.0747 17.4887 19.0747 17.4891 19.0747 17.4894C19.0746 17.5744 19.0687 17.6565 19.0585 17.7507L19.0556 17.7776V17.8047V18.4375C19.0556 19.0353 18.5852 19.5 18.0278 19.5H17.4698C17.4688 19.4998 17.4678 19.4995 17.4668 19.4993C17.4333 19.4915 17.3678 19.4786 17.2861 19.4848C17.2144 19.4796 17.1557 19.4881 17.1206 19.4945C17.1102 19.4964 17.1006 19.4983 17.0929 19.5H14.9722C14.4148 19.5 13.9444 19.0353 13.9444 18.4375V15C13.9444 14.0431 13.1849 13.25 12.2222 13.25H9.77778C8.81506 13.25 8.05556 14.0431 8.05556 15V18.4375C8.05556 19.0353 7.5852 19.5 7.02778 19.5H4.89271C4.85529 19.5 4.81501 19.4974 4.75485 19.4933L4.71658 19.4907L4.67837 19.494C4.62893 19.4982 4.60433 19.5 4.58333 19.5H3.97222C3.4151 19.5 2.94444 19.0352 2.94444 18.4375V14.0625C2.94444 14.037 2.94531 14.0089 2.94682 13.9856L2.94788 13.9694V13.9531V11.2344V10.7344H2.44788H1.22413C0.823474 10.7344 0.5 10.4194 0.5 9.98047C0.5 9.75802 0.565087 9.57601 0.728952 9.4038L10.5077 0.686351L10.5207 0.674776L10.5329 0.662327C10.6615 0.530539 10.8014 0.5 11.0153 0.5C11.1941 0.5 11.373 0.553407 11.4942 0.652364L21.2379 9.41475L21.2388 9.41556C21.4655 9.61841 21.5126 9.78107 21.4959 9.92114Z" stroke="#DBA232"/>
</g>
<defs>
<clipPath id="clip0_3301_2">
<rect width="22" height="20" fill="white"/>
</clipPath>
</defs>
</svg>
