<svg width="24" height="23" viewBox="0 0 24 23" fill="none" xmlns="http://www.w3.org/2000/svg">
<path d="M12.4269 15.0616C14.4075 15.0616 16.013 13.456 16.013 11.4755C16.013 9.49495 14.4075 7.8894 12.4269 7.8894C10.4464 7.8894 8.84082 9.49495 8.84082 11.4755C8.84082 13.456 10.4464 15.0616 12.4269 15.0616Z" stroke="#5B2121" stroke-width="1.47491" stroke-miterlimit="10"/>
<path d="M16.3714 3.22754H8.48203C6.10537 3.22754 4.17871 5.1542 4.17871 7.53086V15.4203C4.17871 17.7969 6.10537 19.7236 8.48203 19.7236H16.3714C18.7481 19.7236 20.6748 17.7969 20.6748 15.4203V7.53086C20.6748 5.1542 18.7481 3.22754 16.3714 3.22754Z" stroke="#5B2121" stroke-width="1.47491" stroke-linecap="round" stroke-linejoin="round"/>
<path d="M17.0885 7.88945C17.6827 7.88945 18.1644 7.40779 18.1644 6.81362C18.1644 6.21946 17.6827 5.73779 17.0885 5.73779C16.4944 5.73779 16.0127 6.21946 16.0127 6.81362C16.0127 7.40779 16.4944 7.88945 17.0885 7.88945Z" fill="#5B2121"/>
</svg>
