<svg width="19" height="16" viewBox="0 0 19 16" fill="none" xmlns="http://www.w3.org/2000/svg">
<g id="messages-duotone-solid (1) 1" clip-path="url(#clip0_982_663)">
<path id="Vector" opacity="0.4" d="M7.56934 10.7064H10.2758C11.77 10.7064 12.9823 9.49417 12.9823 7.99998V4.39136H16.5909C17.5861 4.39136 18.3952 5.20048 18.3952 6.19567V11.6086C18.3952 12.6038 17.5861 13.4129 16.5909 13.4129H15.6887V14.7661C15.6887 14.9381 15.5929 15.0932 15.4406 15.1693C15.2884 15.2454 15.1051 15.2285 14.967 15.127L12.6806 13.4129H9.37364C8.37846 13.4129 7.56934 12.6038 7.56934 11.6086V10.7064Z" fill="#858585"/>
<path id="Vector_2" d="M0.352051 2.58709C0.352051 1.5919 1.16117 0.782776 2.15636 0.782776H10.2758C11.2709 0.782776 12.0801 1.5919 12.0801 2.58709V8.00001C12.0801 8.9952 11.2709 9.80432 10.2758 9.80432H6.06664L3.78024 11.5184C3.64491 11.6199 3.46166 11.6368 3.30661 11.5607C3.15155 11.4846 3.05851 11.3295 3.05851 11.1576V9.80432H2.15636C1.16117 9.80432 0.352051 8.9952 0.352051 8.00001V2.58709Z" fill="#858585"/>
</g>
<defs>
<clipPath id="clip0_982_663">
<rect width="18.0431" height="14.4345" fill="white" transform="translate(0.352051 0.782776)"/>
</clipPath>
</defs>
</svg>
