<svg width="17" height="14" viewBox="0 0 17 14" fill="none" xmlns="http://www.w3.org/2000/svg">
<path d="M10.2054 0.110786C9.84721 0.26963 9.61362 0.62781 9.61362 1.02025V3.0136H6.12526C3.09786 3.0136 0.643555 5.46791 0.643555 8.4953C0.643555 12.0241 3.18196 13.6001 3.76439 13.9178C3.84225 13.9614 3.92946 13.977 4.01667 13.977C4.35616 13.977 4.63025 13.6998 4.63025 13.3634C4.63025 13.1298 4.49632 12.9149 4.32502 12.7561C4.03224 12.4789 3.63358 11.9338 3.63358 10.987C3.63358 9.33625 4.97286 7.99697 6.6236 7.99697H9.61362V9.99031C9.61362 10.3828 9.8441 10.7409 10.2054 10.8998C10.5667 11.0586 10.984 10.9932 11.2768 10.7316L16.2602 6.24656C16.4689 6.05657 16.5903 5.78871 16.5903 5.50528C16.5903 5.22185 16.472 4.954 16.2602 4.76401L11.2768 0.278974C10.984 0.0142329 10.5636 -0.0511738 10.2054 0.110786Z" fill="#9A9A9A"/>
</svg>
