<svg width="33" height="33" viewBox="0 0 33 33" fill="none" xmlns="http://www.w3.org/2000/svg">
<g clip-path="url(#clip0_3235_15)">
<path fill-rule="evenodd" clip-rule="evenodd" d="M33 0H0V33H33V0ZM20.2595 16.5L14.1427 20.0357V12.9643L20.2595 16.5ZM28.097 13.0468C28.0263 12.1039 27.9202 11.3614 27.767 10.8075C27.4724 9.74679 26.7888 9.06321 25.7281 8.76857C24.5141 8.43857 21.4381 8.25 16.4999 8.25L14.6259 8.32071C13.3295 8.32071 11.927 8.35607 10.3949 8.43857C8.83914 8.50929 7.82557 8.61536 7.27164 8.76857C6.21093 9.06321 5.52736 9.74679 5.23271 10.8075C4.90271 12.0214 4.71414 13.9189 4.71414 16.5L4.78486 17.49C4.78486 18.1971 4.82021 19.0104 4.90271 19.9532C4.97343 20.8961 5.0795 21.6386 5.23271 22.1925C5.52736 23.2532 6.21093 23.9368 7.27164 24.2314C8.48557 24.5614 11.5616 24.75 16.4999 24.75L18.3738 24.6793C19.6702 24.6793 21.0727 24.6439 22.6049 24.5614C24.1606 24.4907 25.1741 24.3846 25.7281 24.2314C26.7888 23.9368 27.4724 23.2532 27.767 22.1925C28.097 20.9786 28.2856 19.0811 28.2856 16.5L28.2149 15.51C28.2149 14.8029 28.1795 13.9896 28.097 13.0468Z" fill="white"/>
</g>
<defs>
<clipPath id="clip0_3235_15">
<rect width="33" height="33" rx="16.5" fill="white"/>
</clipPath>
</defs>
</svg>
