<svg width="34" height="34" viewBox="0 0 34 34" fill="none" xmlns="http://www.w3.org/2000/svg">
<path d="M33.288 16.644C33.288 7.45079 25.8372 0 16.644 0C7.45079 0 0 7.45079 0 16.644C0 24.4459 5.37679 30.9995 12.626 32.8004V21.7282H9.19321V16.644H12.626V14.453C12.626 8.79012 15.1877 6.16348 20.753 6.16348C21.8063 6.16348 23.6267 6.37153 24.3744 6.57958V11.1827C23.9843 11.1437 23.3016 11.1177 22.4499 11.1177C19.7192 11.1177 18.666 12.1514 18.666 14.8366V16.644H24.1013L23.1651 21.7282H18.6595V33.1645C26.9035 32.1697 33.288 25.1546 33.288 16.644Z" fill="white"/>
</svg>
