<svg width="33" height="33" viewBox="0 0 33 33" fill="none" xmlns="http://www.w3.org/2000/svg">
<path d="M16.4178 0.27002C7.51068 0.27002 0.293945 7.48676 0.293945 16.3939C0.293945 25.301 7.51068 32.5178 16.4178 32.5178C25.325 32.5178 32.5417 25.301 32.5417 16.3939C32.5417 7.48676 25.325 0.27002 16.4178 0.27002ZM23.8946 11.2382C23.6541 13.7868 22.6008 19.9763 22.0677 22.8304C21.8401 24.0397 21.398 24.4428 20.9689 24.4818C20.0327 24.5664 19.324 23.8642 18.4138 23.2661C16.9965 22.3363 16.1903 21.7577 14.8184 20.8475C13.2256 19.8007 14.2593 19.2221 15.163 18.2794C15.4036 18.0323 19.5256 14.2809 19.6036 13.9428C19.6166 13.8973 19.6231 13.7413 19.5256 13.6567C19.428 13.5722 19.2915 13.6047 19.194 13.6242C19.051 13.6546 16.7841 15.1521 12.3934 18.1168C11.7519 18.5589 11.1689 18.7735 10.6444 18.7605C10.0658 18.7475 8.96053 18.4354 8.13483 18.1688C7.12709 17.8437 6.3209 17.6682 6.39241 17.1091C6.42709 16.8187 6.82802 16.5218 7.5952 16.2184C12.2937 14.1725 15.4274 12.8224 16.9965 12.1679C21.476 10.3084 22.4058 9.98336 23.0104 9.97035C23.1469 9.97035 23.4395 10.0029 23.6346 10.1589C23.7619 10.2708 23.843 10.4261 23.8621 10.5945C23.8973 10.8071 23.9082 11.0231 23.8946 11.2382Z" fill="white"/>
</svg>
