<svg width="33" height="33" viewBox="0 0 33 33" fill="none" xmlns="http://www.w3.org/2000/svg">
<g clip-path="url(#clip0_3235_13)">
<path fill-rule="evenodd" clip-rule="evenodd" d="M33 0H0V33H33V0ZM21.12 5.5H11.88C10.1879 5.5 8.56514 6.17218 7.36866 7.36866C6.17218 8.56514 5.5 10.1879 5.5 11.88V21.12C5.5 24.64 8.36 27.5 11.88 27.5H21.12C22.8121 27.5 24.4349 26.8278 25.6313 25.6313C26.8278 24.4349 27.5 22.8121 27.5 21.12V11.88C27.5 8.36 24.64 5.5 21.12 5.5ZM8.85986 8.85986C9.6025 8.11721 10.6097 7.7 11.66 7.7H21.34C23.529 7.7 25.3 9.471 25.3 11.66V21.34C25.3 22.3903 24.8828 23.3975 24.1401 24.1401C23.3975 24.8828 22.3903 25.3 21.34 25.3H11.66C9.471 25.3 7.7 23.529 7.7 21.34V11.66C7.7 10.6097 8.11721 9.6025 8.85986 8.85986ZM23.2473 9.75273C22.9894 9.49487 22.6397 9.35 22.275 9.35C21.9103 9.35 21.5606 9.49487 21.3027 9.75273C21.0449 10.0106 20.9 10.3603 20.9 10.725C20.9 11.0897 21.0449 11.4394 21.3027 11.6973C21.5606 11.9551 21.9103 12.1 22.275 12.1C22.6397 12.1 22.9894 11.9551 23.2473 11.6973C23.5051 11.4394 23.65 11.0897 23.65 10.725C23.65 10.3603 23.5051 10.0106 23.2473 9.75273ZM20.3891 12.6109C19.3576 11.5795 17.9587 11 16.5 11C15.0413 11 13.6424 11.5795 12.6109 12.6109C11.5795 13.6424 11 15.0413 11 16.5C11 17.9587 11.5795 19.3576 12.6109 20.3891C13.6424 21.4205 15.0413 22 16.5 22C17.9587 22 19.3576 21.4205 20.3891 20.3891C21.4205 19.3576 22 17.9587 22 16.5C22 15.0413 21.4205 13.6424 20.3891 12.6109ZM14.1665 14.1665C14.7854 13.5477 15.6248 13.2 16.5 13.2C17.3752 13.2 18.2146 13.5477 18.8335 14.1665C19.4523 14.7854 19.8 15.6248 19.8 16.5C19.8 17.3752 19.4523 18.2146 18.8335 18.8335C18.2146 19.4523 17.3752 19.8 16.5 19.8C15.6248 19.8 14.7854 19.4523 14.1665 18.8335C13.5477 18.2146 13.2 17.3752 13.2 16.5C13.2 15.6248 13.5477 14.7854 14.1665 14.1665Z" fill="white"/>
</g>
<defs>
<clipPath id="clip0_3235_13">
<rect width="33" height="33" rx="16.5" fill="white"/>
</clipPath>
</defs>
</svg>
