<svg width="33" height="33" viewBox="0 0 33 33" fill="none" xmlns="http://www.w3.org/2000/svg">
<path d="M16.1239 0C7.21674 0 0 7.21674 0 16.1239C0 25.031 7.21674 32.2478 16.1239 32.2478C25.031 32.2478 32.2478 25.031 32.2478 16.1239C32.2478 7.21674 25.031 0 16.1239 0ZM23.6007 10.9681C23.3601 13.5168 22.3069 19.7062 21.7737 22.5604C21.5462 23.7697 21.1041 24.1728 20.675 24.2118C19.7387 24.2963 19.0301 23.5942 18.1199 22.996C16.7025 22.0663 15.8963 21.4877 14.5245 20.5775C12.9316 19.5307 13.9654 18.9521 14.8691 18.0093C15.1096 17.7623 19.2316 14.0109 19.3096 13.6728C19.3226 13.6273 19.3292 13.4712 19.2316 13.3867C19.1341 13.3022 18.9976 13.3347 18.9 13.3542C18.757 13.3846 16.4901 14.8821 12.0994 17.8468C11.4579 18.2889 10.8749 18.5035 10.3505 18.4904C9.77185 18.4774 8.66659 18.1654 7.84089 17.8988C6.83314 17.5737 6.02695 17.3982 6.09847 16.8391C6.13314 16.5486 6.53407 16.2517 7.30126 15.9483C11.9997 13.9025 15.1335 12.5524 16.7025 11.8979C21.1821 10.0384 22.1118 9.71334 22.7165 9.70033C22.853 9.70033 23.1456 9.73284 23.3406 9.88888C23.4679 10.0008 23.549 10.1561 23.5682 10.3245C23.6033 10.5371 23.6142 10.753 23.6007 10.9681Z" fill="white"/>
</svg>
