<svg width="23" height="22" viewBox="0 0 23 22" fill="none" xmlns="http://www.w3.org/2000/svg">
<path d="M11.8623 2.0625C10.0946 2.0625 8.36666 2.58668 6.8969 3.56874C5.42714 4.55081 4.28159 5.94665 3.60514 7.57977C2.92868 9.21288 2.75168 11.0099 3.09654 12.7436C3.4414 14.4773 4.29261 16.0698 5.54254 17.3198C6.79247 18.5697 8.38498 19.4209 10.1187 19.7658C11.8524 20.1106 13.6494 19.9336 15.2825 19.2572C16.9157 18.5807 18.3115 17.4352 19.2936 15.9654C20.2756 14.4956 20.7998 12.7677 20.7998 11C20.7975 8.63033 19.8552 6.35836 18.1796 4.68275C16.5039 3.00713 14.232 2.06478 11.8623 2.0625V2.0625ZM11.8623 18.5625C10.3666 18.5625 8.90446 18.119 7.66081 17.288C6.41716 16.457 5.44786 15.2759 4.87547 13.894C4.30308 12.5122 4.15332 10.9916 4.44512 9.52463C4.73692 8.05765 5.45718 6.71014 6.51481 5.65251C7.57245 4.59487 8.91996 3.87461 10.3869 3.58281C11.8539 3.29101 13.3745 3.44077 14.7564 4.01316C16.1382 4.58555 17.3193 5.55485 18.1503 6.7985C18.9813 8.04215 19.4248 9.50428 19.4248 11C19.4225 13.005 18.625 14.9272 17.2073 16.345C15.7895 17.7627 13.8673 18.5602 11.8623 18.5625V18.5625ZM16.8639 9.625C16.823 9.706 16.7664 9.77799 16.6973 9.83673C16.6282 9.89547 16.548 9.93977 16.4615 9.96701C16.375 9.99424 16.2839 10.0039 16.1936 9.99531C16.1033 9.98675 16.0156 9.96019 15.9357 9.91719C14.6714 9.27212 13.272 8.93652 11.8527 8.93802C10.4333 8.93951 9.03462 9.27805 7.77168 9.92578C7.67335 9.97646 7.56435 10.003 7.45372 10.0031C7.30037 10.0015 7.15198 9.94862 7.03214 9.85295C6.91229 9.75727 6.82788 9.62427 6.79231 9.4751C6.75675 9.32593 6.77208 9.16915 6.83587 9.0297C6.89965 8.89024 7.00823 8.77612 7.14434 8.70547C8.60058 7.95548 10.2147 7.56349 11.8527 7.562C13.4907 7.5605 15.1055 7.94955 16.5631 8.69687C16.644 8.73783 16.716 8.79438 16.775 8.86328C16.8339 8.93218 16.8787 9.01207 16.9066 9.09834C16.9346 9.18461 16.9452 9.27555 16.9379 9.36594C16.9305 9.45633 16.9054 9.54437 16.8639 9.625V9.625ZM15.592 12.057C15.551 12.1379 15.4945 12.21 15.4256 12.2689C15.3567 12.3279 15.2768 12.3726 15.1905 12.4006C15.1043 12.4285 15.0133 12.4392 14.9229 12.4318C14.8325 12.4245 14.7445 12.3993 14.6639 12.3578C13.7929 11.9155 12.8295 11.6857 11.8527 11.6872C10.8758 11.6887 9.91319 11.9214 9.04356 12.3664C8.94792 12.4161 8.84195 12.4426 8.73418 12.4438C8.57696 12.4481 8.42301 12.3983 8.29802 12.3029C8.17304 12.2074 8.08456 12.0719 8.04736 11.9191C8.01016 11.7663 8.02649 11.6053 8.09361 11.4631C8.16074 11.3209 8.2746 11.2059 8.41622 11.1375C9.48086 10.595 10.6588 10.3121 11.8537 10.3121C13.0486 10.3121 14.2266 10.595 15.2912 11.1375C15.4524 11.2202 15.5744 11.3632 15.6307 11.5354C15.687 11.7076 15.6731 11.895 15.592 12.057ZM14.3201 14.4977C14.2357 14.6594 14.0912 14.7816 13.9176 14.8379C13.744 14.8941 13.5552 14.88 13.392 14.7984C12.9141 14.5595 12.387 14.4358 11.8527 14.4373C11.3184 14.4388 10.7919 14.5654 10.3154 14.807C10.2179 14.8502 10.1127 14.8735 10.0061 14.8758C9.85272 14.8741 9.70432 14.8213 9.58448 14.7256C9.46464 14.6299 9.38022 14.4969 9.34466 14.3478C9.30909 14.1986 9.32442 14.0418 9.38821 13.9024C9.452 13.7629 9.56058 13.6488 9.69668 13.5781C10.3672 13.2363 11.1097 13.0595 11.8623 13.0625C12.6082 13.0618 13.3439 13.2354 14.0107 13.5695C14.0924 13.6097 14.1653 13.6657 14.2251 13.7343C14.2849 13.8029 14.3306 13.8826 14.3594 13.969C14.3881 14.0553 14.3995 14.1465 14.3928 14.2372C14.386 14.328 14.3613 14.4165 14.3201 14.4977V14.4977Z" fill="#5B2121"/>
</svg>
