<svg width="44" height="44" viewBox="0 0 44 44" fill="none" xmlns="http://www.w3.org/2000/svg">
<path d="M21.5733 0.833496L22.6489 14.237L27.1569 1.56859L24.7267 14.7938L32.36 3.72377L26.5897 15.8694L36.8279 7.15217L28.1107 17.3904L40.2563 11.6201L29.1863 19.2534L42.4115 16.8232L29.7431 21.3312L43.1466 22.4068L29.7431 23.4824L42.4115 27.9904L29.1863 25.5602L40.2563 33.1935L28.1107 27.4232L36.8279 37.6614L26.5897 28.9442L32.36 41.0898L24.7267 30.0198L27.1569 43.245L22.6489 30.5766L21.5733 43.9801L20.4977 30.5766L15.9897 43.245L18.4199 30.0198L10.7867 41.0898L16.5569 28.9442L6.31867 37.6614L15.0359 27.4232L2.89027 33.1935L13.9603 25.5602L0.735092 27.9904L13.4035 23.4824L0 22.4068L13.4035 21.3312L0.735092 16.8232L13.9603 19.2534L2.89027 11.6201L15.0359 17.3904L6.31867 7.15217L16.5569 15.8694L10.7867 3.72377L18.4199 14.7938L15.9897 1.56859L20.4977 14.237L21.5733 0.833496Z" fill="#DBA232"/>
</svg>
