<svg width="34" height="34" viewBox="0 0 34 34" fill="none" xmlns="http://www.w3.org/2000/svg">
<path fill-rule="evenodd" clip-rule="evenodd" d="M17 0C7.61116 0 0 7.61116 0 17C0 26.3888 7.61116 34 17 34C26.3888 34 34 26.3888 34 17C34 7.61116 26.3888 0 17 0ZM6 24.5496V15.4187C6 14.7484 6.58395 14.2113 7.28219 14.25C9.43707 14.3703 13.7945 14.8301 16.3125 16.5359V27.9957C13.743 26.2512 9.23641 25.8172 7.13867 25.7098C6.4993 25.6775 6 25.1619 6 24.5496ZM17.7348 16.5312C20.2184 14.8288 24.5672 14.3724 26.7195 14.25C27.4156 14.2113 28 14.7484 28 15.4187V24.5496C28 25.1598 27.5016 25.6754 26.8613 25.7106C24.7645 25.8189 20.2673 26.2645 17.6875 28V16.5488C17.6875 16.5402 17.6918 16.5359 17.7348 16.5312ZM17 6C19.2773 6 21.125 7.84766 21.125 10.125C21.125 12.4023 19.2773 14.25 17 14.25C14.7227 14.25 12.875 12.4023 12.875 10.125C12.875 7.84766 14.7227 6 17 6Z" fill="white"/>
</svg>
