<svg width="22" height="20" viewBox="0 0 22 20" fill="none" xmlns="http://www.w3.org/2000/svg">
<path d="M14.9661 1.38835L14.9669 1.38734C15.4581 0.823351 16.1683 0.5 16.9141 0.5C18.3413 0.5 19.5 1.65764 19.5 3.08516C19.5 3.83161 19.1762 4.54203 18.6128 5.03333L10.8693 11.779L8.19 9.12779L14.9661 1.38835ZM7.75669 17.5066L7.7557 17.5068L2.65431 18.9369L4.84689 16.7432C4.89666 16.7476 4.94764 16.75 5.00004 16.75C5.96759 16.75 6.75004 15.9675 6.75004 15C6.75004 14.0325 5.96759 13.25 5.00004 13.25C4.03249 13.25 3.25004 14.0325 3.25004 15C3.25004 15.052 3.2523 15.1028 3.25663 15.1526L1.05988 17.3481L2.49105 12.2127C2.62552 11.7637 3.01436 11.3879 3.50774 11.2722C3.50798 11.2721 3.50822 11.2721 3.50845 11.272L6.49466 10.5845L9.41549 13.5054L8.72802 16.4916C8.72797 16.4918 8.72791 16.4921 8.72786 16.4923C8.61281 16.9829 8.23976 17.3722 7.75669 17.5066Z" stroke="#DBA232"/>
</svg>
