<svg width="22" height="20" viewBox="0 0 22 20" fill="none" xmlns="http://www.w3.org/2000/svg">
<path d="M7.96483 8.75L7.96486 8.75402L8 13.1244C7.99905 13.5397 7.66231 13.875 7.25 13.875H6.625C5.5229 13.875 4.625 12.9784 4.625 11.8699V10.0031C4.625 8.89527 5.52108 8 6.625 8L6.62632 8L7.21484 7.99844C7.21502 7.99844 7.2152 7.99844 7.21538 7.99844C7.62863 7.99873 7.96484 8.33393 7.96483 8.75ZM12.8058 17.4385L12.9504 17.6875H13.2383H17.5625C18.7015 17.6875 19.625 16.764 19.625 15.625V10C19.625 5.24276 15.756 1.38281 11 1.38281C6.24564 1.38281 2.375 5.2427 2.375 10V11.5625C2.375 11.7707 2.14522 12 1.90234 12C1.70768 12 1.5 11.8177 1.5 11.5625L1.50078 10.0086C1.67501 4.9044 5.71114 0.5 11 0.5C16.2887 0.5 20.3243 4.90424 20.5 10.0085V15.625C20.5 17.2473 19.1848 18.5625 17.5625 18.5625H13.2398H12.9522L12.8076 18.8111C12.5668 19.2253 12.1279 19.5 11.625 19.5H10.3398C9.53305 19.5 8.85516 18.7396 9.02726 17.8483L9.02739 17.8476C9.14766 17.2201 9.7493 16.75 10.4453 16.75H11.625C12.1271 16.75 12.5654 17.0242 12.8058 17.4385ZM17.375 11.8699C17.375 12.9786 16.4785 13.875 15.375 13.875H14.75C14.3358 13.875 14 13.5413 14 13.1211V8.75156C14 8.33589 14.3367 8 14.75 8H15.375C16.4773 8 17.375 8.89673 17.375 10.0039V11.8699Z" stroke="#DBA232"/>
</svg>
