<svg width="48" height="44" viewBox="0 0 48 44" fill="none" xmlns="http://www.w3.org/2000/svg">
<path d="M15.2599 0.604739C13.9198 1.50505 13.7469 3.17705 14.9141 4.24884C15.8651 5.10628 17.2917 5.40638 17.2917 4.72043C17.2917 4.50607 16.9891 4.20597 16.6 4.07736C15.6922 3.73438 16.2542 2.96269 17.4214 2.96269C17.9401 2.96269 18.7615 2.66259 19.1938 2.31961C19.9719 1.76228 19.9719 1.67653 19.2802 1.4193C18.8047 1.24782 18.0266 1.50505 17.2052 2.10525C15.649 3.26279 15.2599 3.04843 16.4271 1.59079C17.6375 0.0474049 16.9458 -0.552801 15.2599 0.604739Z" fill="#DBA232"/>
<path d="M30.9953 0.218888C30.8656 0.390375 31.0385 0.947709 31.3844 1.46217C32.1625 2.66258 32.0328 3.43428 30.9089 4.12022C30.1307 4.54894 30.1307 4.63469 30.7792 4.89192C31.2115 5.0634 32.0328 4.80617 32.8109 4.29171C33.9781 3.43428 34.0646 3.26279 33.6323 2.10525C33.1135 0.604734 31.687 -0.424189 30.9953 0.218888Z" fill="#DBA232"/>
<path d="M11.7151 1.93377C10.5047 2.7912 10.5479 5.40638 11.7583 5.19202C12.1474 5.14915 12.5797 5.27777 12.7526 5.535C13.0984 6.04946 15.1302 6.09233 15.1302 5.57787C15.1302 5.36351 14.6979 5.10628 14.1792 4.93479C13.3146 4.72043 13.2714 4.59182 13.8333 4.20597C14.3521 3.863 14.2656 3.82013 13.5307 4.03448C12.7526 4.24884 12.5365 4.12023 12.5365 3.52002C12.5365 3.04843 12.7526 2.4911 13.012 2.23387C13.7901 1.46218 12.7526 1.24782 11.7151 1.93377Z" fill="#DBA232"/>
<path d="M28.1854 1.54792C27.537 1.80515 29.4823 2.96269 30.6063 2.96269C31.1682 2.96269 31.125 2.83407 30.4766 2.10525C29.6984 1.24782 29.2229 1.1192 28.1854 1.54792Z" fill="#DBA232"/>
<path d="M35.0156 2.4911C35.2318 2.96269 35.4479 3.69151 35.4479 4.07736C35.4479 4.67756 35.3182 4.72043 34.9292 4.33459C34.6266 4.03449 34.1943 3.82013 33.9781 3.82013C33.7188 3.82013 33.8052 3.99161 34.1078 4.20597C34.6266 4.54895 34.4969 4.67756 33.5458 4.93479C32.7677 5.10628 32.5083 5.36351 32.8109 5.66361C33.0271 5.87797 33.7188 5.92084 34.4536 5.74936C35.1021 5.535 35.9667 5.36351 36.3125 5.36351C37.1339 5.32064 37.4365 3.13418 36.7016 2.27674C36.4422 1.93377 35.837 1.67653 35.3615 1.67653C34.713 1.67653 34.6266 1.80515 35.0156 2.4911Z" fill="#DBA232"/>
<path d="M8.42969 4.07736C7.95417 4.54895 7.82448 5.19202 8.04062 6.22095C8.17031 7.03551 8.12708 7.93582 7.86771 8.23592C7.47865 8.66464 7.73802 8.79326 8.94844 8.75039C9.81302 8.75039 10.5911 8.49316 10.6776 8.19305C10.8073 7.89295 10.5047 7.67859 9.94271 7.67859C9.42396 7.67859 9.16458 7.46423 9.29427 7.24987C9.46719 6.99264 10.2885 6.94977 11.2828 7.07839C13.1417 7.37849 13.574 6.77828 11.9745 6.09233C11.2828 5.74936 10.7208 5.74936 10.1589 6.04946C9.46719 6.47818 9.38073 6.34956 9.6401 4.93479C9.89948 3.26279 9.55365 3.00556 8.42969 4.07736Z" fill="#DBA232"/>
<path d="M38.3443 4.89192C38.5604 6.30669 37.9984 6.94977 37.3932 5.96372C37.2635 5.70648 36.7448 5.74936 36.0964 6.04946C34.4969 6.77828 34.7562 7.37849 36.5286 7.07838C38.2578 6.73541 39.7276 7.29274 38.1281 7.67859C36.6583 8.02156 37.1771 8.75038 38.8198 8.70751C40.3328 8.66464 40.7219 9.35059 39.3385 9.69356C38.1281 9.99367 38.7333 10.6796 40.2031 10.6796C41.7594 10.6796 42.3214 11.4513 40.8516 11.6228C39.2953 11.8372 40.1167 12.6946 42.062 12.8661C43.4453 12.9947 43.7911 12.8661 44.3964 11.88C45.0016 10.894 45.0448 10.551 44.5693 9.52208L44.0073 8.32167L43.4021 10.0365C43.0995 10.9797 42.7969 11.8372 42.7969 11.9658C42.7969 12.0944 42.5807 11.8372 42.3214 11.4513C42.0187 10.9368 42.062 10.1652 42.4078 8.96474C42.8833 7.33561 42.8833 7.12126 42.0187 6.26382L41.0677 5.36351V7.207C41.0677 8.75038 40.9812 9.00762 40.4625 8.5789C40.0734 8.23592 39.9005 7.5071 40.0302 6.52105C40.1599 5.49213 39.987 4.72043 39.5115 4.20597C38.4307 3.00556 38.0849 3.21992 38.3443 4.89192Z" fill="#DBA232"/>
<path d="M22.4792 6.47818C21.0094 8.83613 20.7932 9.82218 21.3552 11.4513C21.701 12.4374 21.701 12.4374 20.5771 11.7514C18.3724 10.2938 14.9573 11.0655 14.4385 13.1233C14.1792 14.0236 14.3953 14.4523 15.3031 15.2669C16.7729 16.5102 17.2052 16.5102 17.3781 15.2669C17.4646 14.6238 17.8536 14.2809 18.675 14.1951C20.2313 14.0236 21.874 14.8811 21.2255 15.5241C20.5339 16.2101 20.6635 16.6817 21.4417 16.3816C21.9604 16.2101 22.0901 16.2958 21.9604 16.7245C21.6146 17.7535 20.3177 17.7106 20.3177 16.6817C20.3177 15.9957 20.1016 15.7814 19.3667 15.91C18.1563 16.0815 17.6807 18.2679 18.7615 18.6538C19.237 18.8253 18.7182 19.254 17.162 20.0257C13.1849 22.0835 11.9745 25.3847 13.963 28.9001C15.087 30.9151 18.7182 32.973 21.1391 32.973L22.6953 33.0158L21.6578 33.8304C21.0958 34.302 20.4042 34.6878 20.0583 34.6878C19.7557 34.6878 19.3667 34.8593 19.237 35.1166C19.0641 35.3738 20.6635 35.5453 23.7328 35.5453C26.6292 35.5453 28.5312 35.3738 28.5312 35.1166C28.5312 34.8593 28.2719 34.6878 27.926 34.6878C27.5802 34.6878 26.8885 34.3449 26.3266 33.8733L25.3755 33.1016L27.3641 32.8872C30.3469 32.5442 33.0271 30.7865 34.151 28.4286C35.837 24.9988 34.5401 21.7834 30.6927 20.0257C28.7474 19.1254 28.6177 18.9968 29.2229 18.3537C30.2604 17.1961 29.8281 16.0815 28.3151 15.91C26.5427 15.6956 26.0672 15.1383 27.1911 14.5381C28.6609 13.7664 30.4333 14.1522 30.6062 15.2669C30.6927 15.8242 30.9521 16.253 31.1682 16.253C31.8167 16.253 33.7188 14.238 33.7188 13.5949C33.6755 12.6517 32.5948 11.5371 31.2115 11.0655C30.1307 10.6796 29.5255 10.7654 27.926 11.4942C26.024 12.3087 25.9375 12.3087 26.3698 11.5371C27.1047 10.208 26.8885 8.96475 25.462 6.56392C24.7271 5.27777 24.0786 4.24885 23.9922 4.24885C23.9057 4.24885 23.2141 5.2349 22.4792 6.47818ZM27.6667 16.7674C27.6667 17.2819 26.9318 17.5391 26.1969 17.2819C25.8078 17.1533 25.5917 16.896 25.6781 16.7245C25.9375 16.3387 27.6667 16.3387 27.6667 16.7674ZM22.0469 25.942V31.7726L20.6635 31.5153C17.9401 31.0009 16.6 28.5143 16.9458 24.7844C17.2484 21.9978 18.8911 20.24 21.312 20.1543C21.9604 20.1114 22.0469 20.6688 22.0469 25.942ZM28.5745 20.7974C31.8167 22.4265 31.9464 28.943 28.8339 30.8294C28.0557 31.301 27.0182 31.6868 26.4995 31.6868C25.5052 31.6868 25.5052 31.6011 25.5052 25.8991C25.5052 20.3687 25.5484 20.1114 26.3698 20.1114C26.8885 20.1114 27.8828 20.4115 28.5745 20.7974Z" fill="#DBA232"/>
<path d="M5.61979 6.60679C5.27396 7.03551 5.1875 7.76433 5.44688 8.83613C5.61979 9.73643 5.70625 10.7654 5.66302 11.1083C5.61979 11.5371 5.70625 11.5799 5.9224 11.2369C6.13854 10.9797 6.9599 10.6796 7.73802 10.5939C8.55938 10.5081 9.3375 10.208 9.42396 9.86505C9.55365 9.52208 9.42396 9.39346 9.16458 9.56495C8.17031 10.1652 6.91667 9.00761 6.91667 7.46423C6.91667 5.87797 6.48438 5.57787 5.61979 6.60679Z" fill="#DBA232"/>
<path d="M3.58802 9.00761C2.85312 9.73643 2.89635 10.894 3.67448 12.3945C4.02031 13.0804 4.19323 13.9379 4.06354 14.3237C3.80417 14.9239 3.71771 14.9239 3.19896 14.238C2.89635 13.8093 2.59375 13.1233 2.59375 12.6517C2.59375 12.0086 2.46406 11.9658 1.94531 12.3945C1.0375 13.1662 1.12396 14.2808 2.29115 15.6956C2.85313 16.3387 3.19896 17.239 3.1125 17.6677C2.98281 18.3537 2.89635 18.3108 2.20469 17.4534C1.7724 16.896 1.3401 16.1672 1.21042 15.8242C0.994271 15.2669 0.907812 15.3098 0.648437 15.9528C0.172917 17.1104 0.734896 18.568 2.11823 19.597C3.24219 20.4115 3.58802 20.4544 4.53906 20.0257C5.14427 19.7684 5.61979 19.1682 5.61979 18.7395C5.61979 18.0107 5.57656 17.9678 4.53906 18.6538C3.58802 19.254 3.45833 19.254 3.45833 18.6966C3.45833 18.3537 4.06354 17.8392 4.75521 17.582C5.4901 17.3676 6.05208 16.8532 6.05208 16.5102C6.05208 15.6956 5.83594 15.6527 4.71198 16.253C4.10677 16.5959 3.89062 16.5531 3.89062 16.1243C3.89062 15.8242 4.49583 15.3955 5.27396 15.1812C7.00313 14.6238 7.5651 13.4234 5.87917 13.8521C5.05781 14.0665 4.75521 13.9807 4.75521 13.4663C4.75521 13.0376 5.1875 12.8232 6.225 12.8232C7.17604 12.8232 7.78125 12.566 7.95417 12.1373C8.17031 11.6228 7.95417 11.4942 7.00313 11.5371C5.01458 11.6657 4.84167 11.5799 4.4526 9.99367C4.19323 8.79325 4.02031 8.5789 3.58802 9.00761Z" fill="#DBA232"/>
<path d="M45.3906 12.4802C45.3474 13.3805 44.0938 14.7953 43.7479 14.3237C43.3156 13.7235 41.0677 13.552 41.0677 14.1094C41.0677 14.3666 41.7594 14.8811 42.5807 15.224C44.3099 15.91 44.699 16.896 43.013 16.253C42.1484 15.91 41.9323 15.9957 41.9323 16.4673C41.9323 16.8532 42.451 17.3247 43.0563 17.5391C44.4828 18.0964 44.526 18.0964 44.526 17.1961C44.526 16.7245 44.9151 16.0386 45.3906 15.6099C46.2984 14.7953 46.5578 12.6517 45.8229 12.1801C45.6068 12.0515 45.3906 12.1801 45.3906 12.4802Z" fill="#DBA232"/>
<path d="M45.7365 17.1961C45.0448 17.925 44.526 18.6966 44.526 18.911C44.526 19.1682 44.0505 19.0396 43.4453 18.6538C42.4078 17.9678 42.3646 17.9678 42.3646 18.8253C42.3646 19.3397 42.7969 19.8971 43.4453 20.1972C44.0505 20.4544 44.526 20.9689 44.526 21.3118C44.526 21.8692 44.3964 21.8692 43.7479 21.269C41.9755 19.6827 41.8026 21.0975 43.575 22.7266L44.7422 23.8413L46.3849 22.598C47.8547 21.4404 48.3734 20.24 47.725 19.5541C47.5953 19.4255 46.9036 19.9399 46.212 20.6688C45.1313 21.912 45.0016 21.9549 44.9583 21.1403C44.9583 20.6688 45.5635 19.7256 46.2552 19.0396C47.5089 17.8821 47.9411 16.5102 47.2495 16.1243C47.0333 15.9957 46.3849 16.5102 45.7365 17.1961Z" fill="#DBA232"/>
<path d="M0.172917 19.7256C-0.345833 20.583 0.475521 22.255 1.68594 22.8981C2.3776 23.2411 3.02604 23.7555 3.15573 24.0556C3.32865 24.4415 3.4151 24.3557 3.4151 23.927C3.45833 23.5412 3.93385 22.8981 4.53906 22.5122C5.14427 22.1264 5.61979 21.5262 5.61979 21.1832C5.61979 20.3686 5.40365 20.3686 4.02031 21.269C2.93958 21.9978 2.89635 21.9549 1.68594 20.6259C0.994271 19.8542 0.345833 19.4683 0.172917 19.7256Z" fill="#DBA232"/>
<path d="M42.062 23.3697C41.8891 23.8841 42.1917 24.4415 42.9266 25.0846C43.7047 25.7276 44.0073 26.3278 43.8344 26.8423C43.6615 27.3139 43.7047 27.4425 43.9641 27.1424C44.137 26.8852 44.8286 26.5422 45.4771 26.4136C46.1255 26.2421 46.9469 25.8134 47.2927 25.4275C48.0708 24.6987 48.2437 23.1124 47.5521 23.1124C47.3359 23.1124 47.1198 23.2411 47.1198 23.4125C47.1198 23.6269 46.5578 24.0556 45.9094 24.4415C44.699 25.1274 44.6557 25.0846 43.5318 23.8841C42.4943 22.8123 42.3214 22.7695 42.062 23.3697Z" fill="#DBA232"/>
<path d="M0 23.8413C0 24.9988 0.51875 25.5133 2.20469 26.2421C3.76094 26.8852 3.80417 26.8423 4.36615 25.8562C4.66875 25.2989 5.05781 24.8273 5.27396 24.8273C5.44687 24.8273 5.61979 24.4415 5.61979 23.9699C5.61979 22.8123 4.97135 22.8981 4.02031 24.1414L3.24219 25.1274L1.64271 24.1414C0.172917 23.1982 0 23.1982 0 23.8413Z" fill="#DBA232"/>
<path d="M4.62552 26.3278C4.19323 26.928 3.97708 27.614 4.15 27.8712C4.49583 28.4286 2.68021 27.957 1.81563 27.271C0.951042 26.5851 0.648438 27.271 1.29687 28.4714C1.68594 29.2002 2.42083 29.629 3.58802 29.8433C4.53906 30.0577 5.40365 30.4435 5.53333 30.7436C5.74948 31.3867 4.58229 31.4296 3.4151 30.8294C2.72344 30.4435 2.59375 30.5293 2.59375 31.2152C2.59375 32.287 3.80417 32.973 5.70625 32.973C6.5276 32.973 7.43542 33.2302 7.73802 33.4874C8.08385 33.7875 8.25677 33.8304 8.12708 33.616C7.9974 33.3588 8.04062 32.8015 8.25677 32.3299C8.55937 31.6439 8.6026 31.6868 8.51615 32.7586C8.42969 34.0019 8.34323 34.0448 6.39792 34.0019C4.40937 34.0019 4.36615 34.0019 4.92812 34.8593C5.44687 35.5881 5.9224 35.7596 7.69479 35.631C9.16458 35.5453 9.98594 35.7168 10.375 36.1884C10.8505 36.7457 10.6776 36.8314 9.07812 36.8314C7.21927 36.8314 6.91667 37.3888 8.3 38.2891C8.77552 38.5892 9.51042 38.5463 10.7208 38.1605C11.9745 37.7317 12.6661 37.7317 13.2281 38.0318C13.9198 38.4177 13.7901 38.5463 12.2339 38.8035C10.1156 39.1465 9.89948 39.6181 11.499 40.3469C12.45 40.7756 12.8823 40.7328 14.2656 39.9182C15.1734 39.4037 16.2542 39.1036 16.6432 39.2323C17.2052 39.4466 17.2917 39.2751 17.0755 38.2891C16.8161 37.0887 16.8161 37.0887 17.4646 37.8604C17.8536 38.3319 18.1562 38.8464 18.1562 38.975C18.1562 39.1465 17.2052 39.7467 16.038 40.3469L13.8766 41.4187L15.0005 41.9332C16.1677 42.4476 16.8161 42.2333 18.9344 40.3469C19.7557 39.6181 19.8422 39.318 19.4531 38.2891L19.0208 37.0458L20.1016 38.3319L21.2255 39.6181L19.6693 40.9471C18.8479 41.6759 18.2859 42.4048 18.4589 42.5334C19.0641 43.1765 20.4906 42.7906 21.4849 41.7188C22.7385 40.3898 23.7328 40.8614 22.9115 42.3619C22.6521 42.8764 22.5224 43.5194 22.6521 43.8195C22.7385 44.1196 22.8682 44.0339 22.8682 43.648C22.9115 43.2622 23.1708 42.7049 23.5167 42.4476C23.9922 42.0189 24.2516 42.1047 24.5974 42.7049C24.8568 43.1336 25.0729 43.2622 25.0729 42.9621C25.0729 42.7049 24.8568 42.319 24.5974 42.1904C24.338 42.0189 24.2516 41.5902 24.3812 41.2472C24.5109 40.9043 24.4677 40.7328 24.2948 40.8614C23.6896 41.2044 23.1276 40.5184 22.4359 38.8035C21.8307 37.1315 21.7875 37.0887 18.675 36.5742C16.9458 36.2741 15.0437 35.7596 14.4818 35.3738C12.8823 34.3449 12.4068 34.5164 12.7094 35.974C12.8391 36.6599 12.7958 37.2601 12.5797 37.2601C11.888 37.2601 11.7583 36.7457 12.1042 35.5024C12.3635 34.645 12.3203 34.0876 11.9745 33.7875C9.6401 31.8154 8.73229 30.958 8.51615 30.272C8.12708 29.2002 7.47865 29.3717 7.17604 30.615C7.00312 31.2152 6.70052 31.6011 6.48437 31.4725C6.225 31.301 6.31146 30.7436 6.70052 29.9719C7.34896 28.7715 7.17604 27.3996 6.44115 27.3996C6.225 27.3996 5.9224 27.9141 5.79271 28.5143C5.61979 29.2002 5.36042 29.4575 5.10104 29.2002C4.79844 28.9001 5.01458 28.2999 5.61979 27.4854C6.13854 26.7566 6.44115 25.9849 6.31146 25.7276C5.87917 25.0417 5.4901 25.1703 4.62552 26.3278ZM10.8073 34.7307C10.8073 35.4595 10.6344 35.9311 10.375 35.7596C10.1589 35.631 9.94271 35.0308 9.94271 34.4306C9.94271 33.8733 10.1589 33.4017 10.375 33.4017C10.6344 33.4017 10.8073 34.0019 10.8073 34.7307ZM15.2599 37.6889C15.3896 38.1605 15.3464 38.5463 15.1302 38.5463C14.7844 38.5463 14.2656 37.5174 14.2656 36.7886C14.2656 36.0597 15.0005 36.7457 15.2599 37.6889Z" fill="#DBA232"/>
<path d="M41.6297 25.8991C41.5 26.3278 41.7161 27.2281 42.1052 27.9141C42.5375 28.6 42.7969 29.286 42.6672 29.4146C42.5375 29.5003 42.1484 29.0716 41.8026 28.3857C41.1974 27.3139 41.1109 27.271 40.8083 27.9998C40.6354 28.4286 40.7219 29.4146 40.9813 30.1006C41.2406 30.8294 41.4135 31.5153 41.2839 31.6011C41.1974 31.7297 40.8948 31.301 40.6354 30.6579C40.4193 30.0148 40.0302 29.5861 39.8141 29.7147C39.2521 30.0577 38.9495 31.6439 39.3818 31.944C39.5979 32.0727 39.7708 32.5442 39.7708 33.0587C39.7708 33.7018 39.9438 33.8304 40.3328 33.5303C40.5922 33.3159 41.5432 33.1016 42.3646 33.0158C43.9208 32.8872 45.3906 31.944 45.3906 31.0437C45.3906 30.615 45.0448 30.615 43.7911 31.0437C41.9323 31.6868 41.5432 31.5582 42.3646 30.615C42.6672 30.272 43.4453 29.9719 44.0937 29.9719C44.9151 29.9719 45.65 29.5861 46.212 28.8573C47.1198 27.6997 47.0333 26.5851 46.1255 27.3139C45.8229 27.5282 45.1745 27.8283 44.699 27.9998C43.9641 28.2142 43.6615 28.0427 43.2292 26.9709C42.5375 25.3418 42.0187 24.9988 41.6297 25.8991Z" fill="#DBA232"/>
<path d="M37.8255 32.2013C37.6958 32.5014 37.6526 33.4446 37.7391 34.2591L37.8255 35.7596H40.1599C42.0187 35.7596 42.5807 35.5881 43.0562 34.9022C43.6182 34.0448 43.575 34.0448 41.3271 34.1305C39.7708 34.1734 39.0359 34.0448 39.0359 33.7018C39.0792 32.3728 38.863 31.6868 38.474 31.6868C38.2146 31.6868 37.912 31.944 37.8255 32.2013Z" fill="#DBA232"/>
<path d="M35.7073 33.7875C34.5401 35.0737 32.076 36.1026 28.9635 36.6171C26.3698 37.0458 26.1104 37.2173 25.4188 38.5892L24.6839 40.0468L26.1536 41.5045C27.3208 42.7049 27.7964 42.8764 28.7474 42.662L29.9146 42.3619L28.6609 41.4187C26.413 39.7038 26.413 39.661 27.537 38.3319C28.5313 37.1744 28.5745 37.3459 27.8396 39.1894C27.6667 39.661 27.8396 39.8325 28.5745 39.8325C29.0932 39.8325 29.3958 39.9611 29.2661 40.0897C28.9635 40.3898 30.4766 41.6759 31.6005 42.0618C31.9464 42.1904 32.6813 42.0618 33.2 41.8046C34.151 41.2901 34.1078 41.2472 32.3786 40.5184C30.9089 39.8753 30.6927 39.661 31.2979 39.318C31.7734 39.0608 32.5083 39.1894 33.7188 39.8753C35.1453 40.6899 35.6208 40.7756 36.5286 40.3469C38.0849 39.6181 37.8687 39.1465 35.7937 38.8035C34.2375 38.5463 34.0646 38.4177 34.5833 37.989C34.9724 37.6889 35.1885 37.1315 35.1021 36.7457C35.0156 36.317 35.1885 35.6739 35.4479 35.2452C35.837 34.6021 35.8802 34.6878 35.7505 35.8882C35.6208 37.0887 35.7938 37.3888 36.788 37.9461C38.2578 38.6749 39.425 38.7178 40.1167 38.0318C40.938 37.2173 40.7219 36.96 38.9063 36.6599C37.2203 36.4027 37.1771 36.3598 37.1771 34.6878C37.1771 32.8015 36.8313 32.5871 35.7073 33.7875ZM33.6323 36.9172C33.5026 37.9032 32.9839 38.5463 32.2922 38.5463C32.1193 38.5463 32.249 37.9461 32.638 37.2601C33.4161 35.7168 33.8052 35.5881 33.6323 36.9172ZM30.7359 38.2891C30.4766 38.8893 30.0875 39.4037 29.8281 39.4037C29.5687 39.4037 29.6552 38.8464 30.0443 38.0747C30.8656 36.5313 31.3411 36.6599 30.7359 38.2891Z" fill="#DBA232"/>
</svg>
