<svg width="1607" height="1407" viewBox="0 0 1607 1407" fill="none" xmlns="http://www.w3.org/2000/svg">
<g style="mix-blend-mode:overlay" opacity="0.25">
<path d="M510.559 19.8858C465.746 48.7938 459.964 102.48 498.995 136.895C530.798 164.426 578.502 174.062 578.502 152.037C578.502 145.154 568.383 135.518 555.372 131.388C525.015 120.376 543.808 95.5973 582.838 95.5973C600.185 95.5973 627.651 85.9613 642.107 74.9487C668.128 57.0533 668.128 54.3001 644.998 46.0407C629.097 40.5344 603.077 48.7938 575.611 68.0659C523.57 105.233 510.559 98.3505 549.59 51.547C590.066 1.99036 566.937 -17.2817 510.559 19.8858Z" fill="#A8A8A8"/>
<path d="M1037.95 8.55066C1033.62 13.9921 1039.4 31.6766 1050.95 48.0007C1076.93 86.0905 1072.6 110.577 1035.07 132.342C1009.08 145.946 1009.08 148.666 1030.74 156.829C1045.17 162.27 1072.6 154.108 1098.58 137.784C1137.56 110.577 1140.45 105.135 1126.01 68.4059C1108.69 20.7938 1061.05 -11.8545 1037.95 8.55066Z" fill="#A8A8A8"/>
<path d="M390.882 62.8572C350.081 90.195 351.538 173.575 392.339 166.741C405.454 165.374 420.026 169.475 425.855 177.676C437.512 194.079 506 195.446 506 179.043C506 172.208 491.428 164.007 473.942 158.54C444.798 151.705 443.341 147.604 462.284 135.302C479.771 124.367 476.856 123 452.084 129.835C425.855 136.669 418.569 132.569 418.569 113.432C418.569 98.3964 425.855 80.6268 434.598 72.4254C460.827 47.8214 425.855 40.9869 390.882 62.8572Z" fill="#A8A8A8"/>
<path d="M944.306 49.7484C922.702 57.9946 987.514 95.1024 1024.96 95.1024C1043.68 95.1024 1042.24 90.9793 1020.64 67.6151C994.715 40.1279 978.872 36.0048 944.306 49.7484Z" fill="#A8A8A8"/>
<path d="M1172.75 79.6589C1179.97 94.8247 1187.19 118.263 1187.19 130.671C1187.19 149.973 1182.86 151.352 1169.86 138.943C1159.76 129.293 1145.32 122.399 1138.1 122.399C1129.43 122.399 1132.32 127.914 1142.43 134.807C1159.76 145.837 1155.42 149.973 1123.66 158.245C1097.67 163.76 1089 172.033 1099.11 181.684C1106.33 188.577 1129.43 189.956 1153.98 184.441C1175.64 177.547 1204.52 172.033 1216.07 172.033C1243.5 170.654 1253.61 100.34 1229.06 72.7653C1220.4 61.7356 1200.19 53.4634 1184.3 53.4634C1162.64 53.4634 1159.76 57.5995 1172.75 79.6589Z" fill="#A8A8A8"/>
<path d="M282.417 130.925C266.504 146.098 262.164 166.789 269.397 199.895C273.737 226.104 272.29 255.072 263.611 264.728C250.591 278.522 259.271 282.66 299.776 281.281C328.708 281.281 354.747 273.004 357.641 263.348C361.98 253.692 351.854 246.795 333.048 246.795C315.689 246.795 307.009 239.898 311.349 233.001C317.135 224.725 344.621 223.345 377.893 227.484C440.098 237.139 454.564 217.828 401.039 195.757C377.893 184.722 359.087 184.722 340.281 194.378C317.135 208.172 314.242 204.033 322.922 158.513C331.602 104.716 320.029 96.4392 282.417 130.925Z" fill="#A8A8A8"/>
<path d="M1284.13 157.198C1291.39 202.193 1272.52 222.645 1252.19 191.285C1247.84 183.104 1230.42 184.468 1208.65 194.012C1154.94 217.191 1163.65 236.28 1223.16 226.736C1281.23 215.828 1330.58 233.553 1276.87 245.825C1227.52 256.733 1244.94 279.912 1300.1 278.548C1350.9 277.185 1363.97 299.001 1317.52 309.909C1276.87 319.453 1297.19 341.269 1346.55 341.269C1398.8 341.269 1417.68 365.812 1368.32 371.266C1316.06 378.083 1343.64 405.353 1408.97 410.807C1455.42 414.897 1467.03 410.807 1487.35 379.447C1507.67 348.086 1509.13 337.178 1493.16 304.455L1474.29 266.277L1453.97 320.817C1443.8 350.813 1433.64 378.083 1433.64 382.174C1433.64 386.264 1426.39 378.083 1417.68 365.812C1407.51 349.45 1408.97 324.907 1420.58 286.729C1436.55 234.917 1436.55 228.099 1407.51 200.829L1375.58 172.196V230.826C1375.58 279.912 1372.68 288.093 1355.26 274.458C1342.19 263.55 1336.39 240.371 1340.74 209.01C1345.1 176.287 1339.29 151.744 1323.32 135.382C1287.03 97.2043 1275.42 104.022 1284.13 157.198Z" fill="#A8A8A8"/>
<path d="M187.846 211.713C176.259 225.389 173.363 248.637 182.053 282.826C187.846 311.544 190.742 344.366 189.294 355.306C187.846 368.982 190.742 370.349 197.984 359.409C205.225 351.203 232.743 341.631 258.812 338.895C286.33 336.16 312.399 326.588 315.295 315.647C319.64 304.707 315.295 300.604 306.606 306.074C273.295 325.22 231.295 288.296 231.295 239.064C231.295 188.465 216.812 178.892 187.846 211.713Z" fill="#A8A8A8"/>
<path d="M120.091 288.985C95.4601 312.336 96.909 349.422 122.988 397.496C134.579 419.473 140.374 446.944 136.028 459.306C127.335 478.536 124.437 478.536 107.051 456.559C96.909 442.824 86.767 420.847 86.767 405.737C86.767 385.134 82.4205 383.761 65.0343 397.496C34.6085 422.22 37.5062 457.933 76.6251 503.26C95.4601 523.863 107.051 552.708 104.153 566.444C99.8067 588.421 96.909 587.047 73.7274 559.576C59.2389 541.72 44.7505 518.369 40.4039 507.381C33.1597 489.525 30.262 490.898 21.5689 511.501C5.6316 548.588 24.4666 595.288 70.8297 628.254C108.5 654.351 120.091 655.725 151.965 641.989C172.249 633.748 188.186 614.518 188.186 600.783C188.186 577.432 186.738 576.059 151.965 598.036C120.091 617.265 115.744 617.265 115.744 599.409C115.744 588.421 136.028 571.938 159.209 563.697C183.84 556.829 202.675 540.346 202.675 529.358C202.675 503.26 195.431 501.887 157.761 521.116C137.477 532.105 130.232 530.731 130.232 516.996C130.232 507.381 150.516 493.645 176.596 486.777C234.549 468.921 253.384 430.462 196.879 444.197C169.351 451.065 159.209 448.318 159.209 431.835C159.209 418.1 173.698 411.232 208.47 411.232C240.345 411.232 260.629 402.99 266.424 389.255C273.668 372.772 266.424 368.651 234.549 370.025C167.902 374.146 162.107 371.399 149.067 320.577C140.374 282.117 134.579 275.25 120.091 288.985Z" fill="#A8A8A8"/>
<path d="M1520.32 400.559C1518.88 429.247 1477.02 474.327 1465.48 459.3C1451.05 440.175 1376 434.711 1376 452.47C1376 460.666 1399.09 477.059 1426.51 487.987C1484.24 509.844 1497.23 541.264 1440.94 520.773C1412.08 509.844 1404.86 512.577 1404.86 527.603C1404.86 539.898 1422.18 554.924 1442.39 561.755C1490.01 579.514 1491.46 579.514 1491.46 550.826C1491.46 535.8 1504.44 513.943 1520.32 500.282C1550.63 474.327 1559.29 406.024 1534.75 390.997C1527.54 386.899 1520.32 390.997 1520.32 400.559Z" fill="#A8A8A8"/>
<path d="M1531.56 550.94C1508.51 574.118 1491.22 598.66 1491.22 605.478C1491.22 613.658 1475.37 609.568 1455.2 597.297C1420.63 575.482 1419.19 575.482 1419.19 602.751C1419.19 619.112 1433.59 636.837 1455.2 646.381C1475.37 654.561 1491.22 670.923 1491.22 681.83C1491.22 699.555 1486.9 699.555 1465.29 680.467C1406.22 630.019 1400.46 675.013 1459.53 726.824L1498.43 762.273L1553.17 722.733C1602.16 685.921 1619.45 647.744 1597.83 625.929C1593.51 621.839 1570.46 638.2 1547.41 661.379C1511.39 700.918 1507.07 702.282 1505.63 676.376C1505.63 661.379 1525.8 631.383 1548.85 609.568C1590.63 572.755 1605.04 529.125 1581.99 516.854C1574.78 512.764 1553.17 529.125 1531.56 550.94Z" fill="#A8A8A8"/>
<path d="M5.31034 630.441C-12.0887 657.978 15.4598 711.674 56.0575 732.327C79.2562 743.341 101.005 759.863 105.355 769.501C111.154 781.893 114.054 779.139 114.054 765.371C115.504 752.979 131.453 732.327 151.752 719.935C172.051 707.544 188 688.268 188 677.254C188 651.094 180.75 651.094 134.353 680.007C98.1051 703.413 96.6552 702.036 56.0575 659.355C32.8588 634.572 11.11 622.18 5.31034 630.441Z" fill="#A8A8A8"/>
<path d="M1408.59 747.3C1402.8 763.861 1412.93 781.801 1437.55 802.502C1463.61 823.203 1473.75 842.524 1467.96 859.084C1462.16 874.265 1463.61 878.405 1472.3 868.745C1478.09 860.464 1501.26 849.424 1522.98 845.284C1544.7 839.764 1572.21 825.963 1583.8 813.543C1609.86 790.082 1615.65 739.02 1592.49 739.02C1585.25 739.02 1578.01 743.16 1578.01 748.68C1578.01 755.581 1559.18 769.381 1537.46 781.801C1496.92 803.882 1495.47 802.502 1457.82 763.861C1423.07 729.36 1417.28 727.979 1408.59 747.3Z" fill="#A8A8A8"/>
<path d="M0 762.548C0 799.602 17.3538 816.07 73.7538 839.4C125.815 859.986 127.262 858.614 146.062 827.049C156.185 809.208 169.2 794.112 176.431 794.112C182.215 794.112 188 781.761 188 766.665C188 729.611 166.308 732.356 134.492 772.154L108.462 803.719L54.9538 772.154C5.78462 741.962 0 741.962 0 762.548Z" fill="#A8A8A8"/>
<path d="M155.169 842.134C140.691 861.31 133.451 883.225 139.243 891.443C150.826 909.249 90.016 894.182 61.0591 872.267C32.1022 850.352 21.9673 872.267 43.6849 910.618C56.7155 933.903 81.3289 947.6 120.421 954.448C152.273 961.297 181.23 973.624 185.574 983.212C192.813 1003.76 153.721 1005.13 114.629 985.951C91.4638 973.624 87.1203 976.363 87.1203 998.278C87.1203 1032.52 127.66 1054.44 191.365 1054.44C218.874 1054.44 249.279 1062.65 259.414 1070.87C270.997 1080.46 276.788 1081.83 272.445 1074.98C268.101 1066.76 269.549 1048.96 276.788 1033.89C286.923 1011.98 288.371 1013.34 285.475 1047.59C282.579 1087.31 279.684 1088.68 214.531 1087.31C147.93 1087.31 146.482 1087.31 165.304 1114.7C182.678 1137.99 198.604 1143.47 257.966 1139.36C307.193 1136.62 334.702 1142.1 347.733 1157.16C363.659 1174.97 357.867 1177.71 304.297 1177.71C242.04 1177.71 231.905 1195.51 278.236 1224.28C294.162 1233.86 318.776 1232.49 359.315 1220.17C401.303 1206.47 424.468 1206.47 443.29 1216.06C466.456 1228.39 462.112 1232.49 409.99 1240.71C339.045 1251.67 331.806 1266.74 385.376 1290.02C417.229 1303.72 431.708 1302.35 478.039 1276.32C508.443 1259.89 544.639 1250.3 557.67 1254.41C576.492 1261.26 579.388 1255.78 572.149 1224.28C563.461 1185.93 563.461 1185.93 585.179 1210.58C598.21 1225.65 608.345 1242.08 608.345 1246.19C608.345 1251.67 576.492 1270.85 537.4 1290.02L465.008 1324.26L502.652 1340.7C541.744 1357.14 563.461 1350.29 634.406 1290.02C661.915 1266.74 664.811 1257.15 651.78 1224.28L637.302 1184.56L673.498 1225.65L711.142 1266.74L659.019 1309.2C631.51 1332.48 612.688 1355.77 618.48 1359.88C638.749 1380.42 686.528 1368.09 719.829 1333.85C761.816 1291.39 795.117 1306.46 767.608 1354.4C758.921 1370.83 754.577 1391.38 758.921 1400.97C761.816 1410.55 766.16 1407.81 766.16 1395.49C767.608 1383.16 776.295 1365.35 787.878 1357.14C803.804 1343.44 812.491 1346.18 824.074 1365.35C832.761 1379.05 840 1383.16 840 1373.57C840 1365.35 832.761 1353.03 824.074 1348.92C815.387 1343.44 812.491 1329.74 816.834 1318.79C821.178 1307.83 819.73 1302.35 813.939 1306.46C793.669 1317.42 774.847 1295.5 751.681 1240.71C731.412 1187.3 729.964 1185.93 625.719 1169.49C567.805 1159.9 504.1 1143.47 485.278 1131.14C431.708 1098.27 415.781 1103.74 425.916 1150.31C430.26 1172.23 428.812 1191.4 421.573 1191.4C398.407 1191.4 394.064 1174.97 405.646 1135.25C414.333 1107.85 412.886 1090.05 401.303 1080.46C323.119 1017.45 292.714 990.06 285.475 968.145C272.445 933.903 250.727 939.382 240.592 979.103C234.801 998.278 224.666 1010.61 217.426 1006.5C208.739 1001.02 211.635 983.212 224.666 958.557C246.383 920.206 240.592 876.376 215.979 876.376C208.739 876.376 198.604 892.812 194.261 911.988C188.469 933.903 179.782 942.121 171.095 933.903C160.96 924.315 168.2 905.14 188.469 879.116C205.844 855.831 215.979 831.177 211.635 822.958C197.157 801.043 184.126 805.152 155.169 842.134ZM362.211 1110.59C362.211 1133.88 356.42 1148.94 347.733 1143.47C340.493 1139.36 333.254 1120.18 333.254 1101C333.254 1083.2 340.493 1068.13 347.733 1068.13C356.42 1068.13 362.211 1087.31 362.211 1110.59ZM511.339 1205.1C515.683 1220.17 514.235 1232.49 506.996 1232.49C495.413 1232.49 478.039 1199.62 478.039 1176.34C478.039 1153.05 502.652 1174.97 511.339 1205.1Z" fill="#A8A8A8"/>
<path d="M1394.14 828.918C1389.8 842.601 1397.04 871.337 1410.07 893.231C1424.54 915.125 1433.23 937.019 1428.89 941.124C1424.54 943.861 1411.51 930.177 1399.93 908.283C1379.67 874.074 1376.77 872.706 1366.64 895.968C1360.85 909.652 1363.74 941.124 1372.43 963.018C1381.11 986.28 1386.9 1008.17 1382.56 1010.91C1379.67 1015.02 1369.53 1001.33 1360.85 980.807C1353.61 960.281 1340.58 946.598 1333.34 950.703C1314.52 961.65 1304.39 1012.28 1318.86 1021.86C1326.1 1025.96 1331.89 1041.02 1331.89 1057.44C1331.89 1077.96 1337.68 1082.07 1350.71 1072.49C1359.4 1065.65 1391.25 1058.8 1418.75 1056.07C1470.87 1051.96 1520.09 1021.86 1520.09 993.122C1520.09 979.439 1508.51 979.439 1466.53 993.122C1404.28 1013.65 1391.25 1009.54 1418.75 979.439C1428.89 968.492 1454.94 958.913 1476.66 958.913C1504.17 958.913 1528.78 946.598 1547.6 923.335C1578 886.389 1575.1 850.812 1544.7 874.074C1534.57 880.916 1512.85 890.494 1496.93 895.968C1472.32 902.81 1462.18 897.336 1447.71 863.127C1424.54 811.129 1407.17 800.182 1394.14 828.918Z" fill="#A8A8A8"/>
<path d="M1267.39 1030.38C1263.06 1039.93 1261.62 1069.95 1264.5 1095.88L1267.39 1143.65H1345.29C1407.32 1143.65 1426.08 1138.19 1441.95 1116.35C1460.7 1089.06 1459.26 1089.06 1384.24 1091.79C1332.31 1093.15 1307.78 1089.06 1307.78 1078.14C1309.22 1035.84 1302.01 1014 1289.03 1014C1280.37 1014 1270.27 1022.19 1267.39 1030.38Z" fill="#A8A8A8"/>
<path d="M1195.06 1080.44C1155.98 1121.6 1073.49 1154.53 969.282 1171C882.445 1184.72 873.761 1190.21 850.604 1234.11L826 1280.76L875.208 1327.41C914.285 1365.83 930.205 1371.32 962.046 1364.46L1001.12 1354.86L959.151 1324.67C883.892 1269.79 883.892 1268.42 921.521 1225.88C954.809 1188.83 956.257 1194.32 931.653 1253.32C925.863 1268.42 931.653 1273.9 956.257 1273.9C973.624 1273.9 983.755 1278.02 979.413 1282.14C969.282 1291.74 1019.94 1332.9 1057.57 1345.25C1069.15 1349.37 1093.75 1345.25 1111.12 1337.02C1142.96 1320.55 1141.51 1319.18 1083.62 1295.86C1034.41 1275.28 1027.17 1268.42 1047.44 1257.44C1063.36 1249.21 1087.96 1253.32 1128.48 1275.28C1176.25 1301.35 1192.17 1304.09 1222.56 1290.37C1274.66 1267.04 1267.42 1251.95 1197.95 1240.97C1145.85 1232.74 1140.06 1228.62 1157.43 1214.9C1170.46 1205.3 1177.69 1187.46 1174.8 1175.11C1171.9 1161.39 1177.69 1140.81 1186.38 1127.09C1199.4 1106.51 1200.85 1109.25 1196.51 1147.67C1192.17 1186.09 1197.95 1195.69 1231.24 1213.53C1280.45 1236.86 1319.53 1238.23 1342.68 1216.28C1370.18 1190.21 1362.95 1181.97 1302.16 1172.37C1245.72 1164.14 1244.27 1162.76 1244.27 1109.25C1244.27 1048.88 1232.69 1042.02 1195.06 1080.44ZM1125.59 1180.6C1121.25 1212.16 1103.88 1232.74 1080.72 1232.74C1074.93 1232.74 1079.28 1213.53 1092.3 1191.58C1118.35 1142.18 1131.38 1138.07 1125.59 1180.6ZM1028.62 1224.51C1019.94 1243.72 1006.91 1260.18 998.228 1260.18C989.544 1260.18 992.439 1242.35 1005.46 1217.65C1032.96 1168.25 1048.88 1172.37 1028.62 1224.51Z" fill="#A8A8A8"/>
</g>
</svg>
