<svg width="100" height="93" viewBox="0 0 100 93" fill="none" xmlns="http://www.w3.org/2000/svg">
<path d="M31.7914 1.27037C28.9996 3.16165 28.6393 6.67402 31.071 8.92554C33.0523 10.7268 36.0243 11.3572 36.0243 9.91621C36.0243 9.4659 35.3939 8.83548 34.5833 8.56529C32.6921 7.84481 33.8628 6.22372 36.2945 6.22372C37.3752 6.22372 39.0864 5.59329 39.987 4.8728C41.6081 3.70201 41.6081 3.52189 40.1671 2.98153C39.1764 2.62128 37.5553 3.16165 35.8442 4.4225C32.602 6.85414 31.7914 6.40384 34.2231 3.34177C36.7448 0.0995833 35.3038 -1.16127 31.7914 1.27037Z" fill="white"/>
<path d="M64.5736 0.459818C64.3034 0.820061 64.6636 1.99085 65.3841 3.07158C67.0052 5.59328 66.735 7.21438 64.3934 8.65535C62.7724 9.55596 62.7723 9.73608 64.1233 10.2764C65.0239 10.6367 66.735 10.0963 68.3561 9.01559C70.7878 7.21438 70.9679 6.85413 70.0673 4.42249C68.9865 1.27036 66.0145 -0.891094 64.5736 0.459818Z" fill="white"/>
<path d="M24.4065 4.06226C21.8848 5.86347 21.9748 11.3572 24.4965 10.9069C25.3071 10.8168 26.2077 11.087 26.5679 11.6274C27.2884 12.7081 31.5213 12.7981 31.5213 11.7174C31.5213 11.2671 30.6207 10.7268 29.5399 10.3665C27.7387 9.91621 27.6487 9.64602 28.8194 8.83548C29.9002 8.11499 29.7201 8.02493 28.189 8.47523C26.5679 8.92554 26.1176 8.65536 26.1176 7.3945C26.1176 6.40384 26.5679 5.23305 27.1083 4.69268C28.7294 3.07159 26.5679 2.62128 24.4065 4.06226Z" fill="white"/>
<path d="M58.7196 3.25171C57.3687 3.79208 61.4214 6.22372 63.763 6.22372C64.9338 6.22372 64.8437 5.95354 63.4928 4.4225C61.8717 2.62129 60.8811 2.35111 58.7196 3.25171Z" fill="white"/>
<path d="M72.9492 5.23305C73.3995 6.22372 73.8498 7.75475 73.8498 8.5653C73.8498 9.82615 73.5796 9.91621 72.7691 9.10566C72.1387 8.47523 71.2381 8.02493 70.7878 8.02493C70.2474 8.02493 70.4275 8.38517 71.0579 8.83548C72.1387 9.55596 71.8685 9.82615 69.8872 10.3665C68.2661 10.7268 67.7257 11.2671 68.3561 11.8975C68.8064 12.3478 70.2474 12.4379 71.7784 12.0777C73.1293 11.6274 74.9306 11.2671 75.651 11.2671C77.3622 11.1771 77.9926 6.58396 76.4616 4.78274C75.9212 4.06226 74.6604 3.52189 73.6697 3.52189C72.3188 3.52189 72.1387 3.79208 72.9492 5.23305Z" fill="white"/>
<path d="M17.5618 8.5653C16.5712 9.55596 16.301 10.9069 16.7513 13.0683C17.0215 14.7795 16.9314 16.6708 16.3911 17.3012C15.5805 18.2018 16.1209 18.472 18.6426 18.3819C20.4438 18.3819 22.0649 17.8416 22.245 17.2111C22.5152 16.5807 21.8848 16.1304 20.714 16.1304C19.6332 16.1304 19.0929 15.6801 19.3631 15.2298C19.7233 14.6894 21.4345 14.5994 23.5059 14.8695C27.3785 15.5 28.2791 14.2391 24.9468 12.7982C23.5059 12.0777 22.3351 12.0777 21.1643 12.7081C19.7233 13.6087 19.5432 13.3385 20.0835 10.3665C20.6239 6.85414 19.9034 6.31378 17.5618 8.5653Z" fill="white"/>
<path d="M79.8839 10.2764C80.3342 13.2485 79.1634 14.5994 77.9026 12.528C77.6324 11.9876 76.5516 12.0777 75.2007 12.7081C71.8685 14.2391 72.4088 15.5 76.1013 14.8695C79.7038 14.1491 82.7658 15.3198 79.4336 16.1304C76.3715 16.8509 77.4523 18.3819 80.8746 18.2919C84.0267 18.2018 84.8372 19.6428 81.9553 20.3633C79.4336 20.9937 80.6944 22.4346 83.7565 22.4346C86.9987 22.4346 88.1695 24.0557 85.1074 24.416C81.8652 24.8663 83.5764 26.6675 87.6291 27.0277C90.5111 27.2979 91.2315 27.0277 92.4924 24.9563C93.7532 22.885 93.8433 22.1645 92.8526 20.003L91.6819 17.4813L90.421 21.0837C89.7906 23.0651 89.1602 24.8663 89.1602 25.1365C89.1602 25.4067 88.7098 24.8663 88.1695 24.0557C87.5391 22.975 87.6291 21.3539 88.3496 18.8322C89.3403 15.4099 89.3403 14.9596 87.5391 13.1584L85.5577 11.2671V15.1397C85.5577 18.3819 85.3776 18.9223 84.2969 18.0217C83.4863 17.3012 83.1261 15.7702 83.3963 13.6988C83.6664 11.5373 83.3062 9.9162 82.3155 8.83548C80.064 6.31377 79.3435 6.76408 79.8839 10.2764Z" fill="white"/>
<path d="M46.8316 13.6087C43.7695 18.562 43.3192 20.6334 44.49 24.0558C45.2105 26.1271 45.2105 26.1271 42.8689 24.6862C38.2758 21.6241 31.161 23.2452 30.0803 27.5681C29.5399 29.4594 29.9902 30.36 31.8815 32.0712C34.9436 34.6829 35.8442 34.6829 36.2044 32.0712C36.3845 30.7202 37.1951 29.9998 38.9062 29.8196C42.1484 29.4594 45.5707 31.2606 44.2198 32.6115C42.7789 34.0525 43.049 35.0432 44.6701 34.4127C45.7509 34.0525 46.0211 34.2326 45.7509 35.1332C45.0304 37.2947 42.3286 37.2046 42.3286 35.0432C42.3286 33.6022 41.8783 33.1519 40.3472 33.4221C37.8255 33.7823 36.8349 38.3754 39.0864 39.186C40.077 39.5462 38.9963 40.4468 35.7541 42.0679C27.4685 46.3908 24.9468 53.3255 29.0896 60.7105C31.4312 64.9433 38.9963 69.2663 44.0397 69.2663L47.2819 69.3563L45.1204 71.0675C43.9497 72.0581 42.5087 72.8687 41.7882 72.8687C41.1578 72.8687 40.3472 73.2289 40.077 73.7693C39.7168 74.3097 43.049 74.6699 49.4434 74.6699C55.4774 74.6699 59.4401 74.3097 59.4401 73.7693C59.4401 73.2289 58.8997 72.8687 58.1793 72.8687C57.4588 72.8687 56.0178 72.1482 54.847 71.1575L52.8657 69.5364L57.0085 69.0861C63.2227 68.3656 68.8064 64.6732 71.148 59.7198C74.6604 52.515 71.9585 45.7604 63.9431 42.0679C59.8904 40.1766 59.6202 39.9064 60.8811 38.5555C63.0425 36.1239 62.1419 33.7823 58.9898 33.4221C55.2973 32.9718 54.3066 31.801 56.6482 30.5401C59.7103 28.919 63.4028 29.7296 63.763 32.0712C63.9431 33.2419 64.4835 34.1426 64.9338 34.1426C66.2847 34.1426 70.2474 29.9097 70.2474 28.5588C70.1573 26.5775 67.9058 24.2359 65.0239 23.2452C62.7724 22.4347 61.5115 22.6148 58.1793 24.1458C54.2166 25.857 54.0365 25.857 54.9371 24.2359C56.4681 21.444 56.0178 18.8322 53.0458 13.7888C51.5148 11.087 50.1638 8.92554 49.9837 8.92554C49.8036 8.92554 48.3626 10.9969 46.8316 13.6087ZM57.6389 35.2233C57.6389 36.304 56.1079 36.8444 54.5768 36.304C53.7663 36.0338 53.316 35.4935 53.4961 35.1332C54.0365 34.3227 57.6389 34.3227 57.6389 35.2233ZM45.931 54.4963V66.7445L43.049 66.2042C37.3752 65.1235 34.5833 59.8999 35.3038 52.0646C35.9342 46.2107 39.3566 42.5182 44.4 42.3381C45.7509 42.248 45.931 43.4188 45.931 54.4963ZM59.5302 43.689C66.2847 47.1113 66.5549 60.8005 60.0705 64.7632C58.4494 65.7539 56.288 66.5644 55.2072 66.5644C53.1358 66.5644 53.1359 66.3843 53.1359 54.4062C53.1359 42.7884 53.2259 42.248 54.9371 42.248C56.0178 42.248 58.0892 42.8784 59.5302 43.689Z" fill="white"/>
<path d="M11.7079 13.8789C10.9874 14.7795 10.8073 16.3105 11.3477 18.562C11.7079 20.4533 11.888 22.6148 11.798 23.3353C11.7079 24.2359 11.888 24.3259 12.3383 23.6054C12.7886 23.0651 14.4998 22.4346 16.1209 22.2545C17.832 22.0744 19.4531 21.444 19.6332 20.7235C19.9034 20.003 19.6332 19.7328 19.0929 20.0931C17.0215 21.3539 14.4097 18.9223 14.4097 15.6801C14.4097 12.3478 13.5091 11.7174 11.7079 13.8789Z" fill="white"/>
<path d="M7.47504 18.9223C5.94401 20.4533 6.03407 22.8849 7.65516 26.0371C8.37565 27.478 8.73589 29.2793 8.46571 30.0898C7.92535 31.3507 7.74523 31.3507 6.6645 29.9097C6.03407 29.0091 5.40365 27.5681 5.40365 26.5774C5.40365 25.2265 5.13346 25.1365 4.05273 26.0371C2.16146 27.6582 2.34158 29.9998 4.77322 32.9718C5.94401 34.3227 6.6645 36.2139 6.48438 37.1145C6.21419 38.5555 6.03407 38.4655 4.5931 36.6642C3.69249 35.4935 2.79188 33.9624 2.5217 33.2419C2.0714 32.0711 1.89128 32.1612 1.35091 33.5121C0.360243 35.9438 1.53103 39.0058 4.41298 41.1673C6.75456 42.8784 7.47504 42.9685 9.45638 42.0679C10.7172 41.5275 11.7079 40.2667 11.7079 39.3661C11.7079 37.835 11.6178 37.745 9.45638 39.1859C7.47504 40.4468 7.20486 40.4468 7.20486 39.276C7.20486 38.5555 8.46571 37.4748 9.90668 36.9344C11.4377 36.4841 12.6085 35.4034 12.6085 34.6829C12.6085 32.9718 12.1582 32.8817 9.81662 34.1425C8.55577 34.863 8.10547 34.773 8.10547 33.8724C8.10547 33.2419 9.36632 32.3413 10.9874 31.891C14.5898 30.7202 15.7606 28.1985 12.2483 29.0991C10.5371 29.5494 9.90668 29.3693 9.90668 28.2886C9.90668 27.388 10.8073 26.9377 12.9688 26.9377C14.9501 26.9377 16.2109 26.3973 16.5712 25.4967C17.0215 24.416 16.5712 24.1458 14.5898 24.2359C10.447 24.506 10.0868 24.3259 9.27626 20.9937C8.73589 18.472 8.37565 18.0217 7.47504 18.9223Z" fill="white"/>
<path d="M94.5638 26.2172C94.4737 28.1085 91.862 31.0805 91.1415 30.0898C90.2409 28.829 85.5577 28.4687 85.5577 29.6395C85.5577 30.1799 86.9987 31.2606 88.7099 31.9811C92.3123 33.4221 93.1228 35.4935 89.6105 34.1425C87.8092 33.4221 87.3589 33.6022 87.3589 34.5929C87.3589 35.4034 88.4397 36.3941 89.7005 36.8444C92.6725 38.0152 92.7626 38.0152 92.7626 36.1239C92.7626 35.1332 93.5731 33.6922 94.5638 32.7916C96.4551 31.0805 96.9954 26.5774 95.4644 25.5868C95.0141 25.3166 94.5638 25.5868 94.5638 26.2172Z" fill="white"/>
<path d="M95.2843 36.1239C93.8433 37.6549 92.7626 39.276 92.7626 39.7263C92.7626 40.2667 91.7719 39.9965 90.5111 39.186C88.3496 37.745 88.2595 37.745 88.2595 39.5462C88.2595 40.6269 89.1602 41.7977 90.5111 42.4281C91.7719 42.9685 92.7626 44.0492 92.7626 44.7697C92.7626 45.9405 92.4924 45.9405 91.1415 44.6797C87.449 41.3474 87.0888 44.3194 90.7812 47.7417L93.2129 50.0833L96.6352 47.4715C99.6973 45.0399 100.778 42.5182 99.4271 41.0772C99.1569 40.807 97.7159 41.8878 96.275 43.4188C94.0234 46.0306 93.7532 46.1206 93.6632 44.4095C93.6632 43.4188 94.924 41.4375 96.365 39.9965C98.9768 37.5649 99.8774 34.6829 98.4364 33.8724C97.9861 33.6022 96.6352 34.6829 95.2843 36.1239Z" fill="white"/>
<path d="M0.360243 41.4375C-0.720486 43.2387 0.990668 46.7511 3.51237 48.102C4.95334 48.8225 6.30425 49.9032 6.57444 50.5336C6.93468 51.3442 7.1148 51.164 7.1148 50.2634C7.20486 49.4529 8.19553 48.102 9.45638 47.2914C10.7172 46.4809 11.7079 45.22 11.7079 44.4995C11.7079 42.7884 11.2576 42.7884 8.37565 44.6797C6.12413 46.2107 6.03407 46.1206 3.51237 43.3287C2.0714 41.7077 0.720486 40.8971 0.360243 41.4375Z" fill="white"/>
<path d="M87.6291 49.0926C87.2689 50.1734 87.8993 51.3442 89.4303 52.6951C91.0514 54.046 91.6819 55.3068 91.3216 56.3876C90.9614 57.3782 91.0514 57.6484 91.5918 57.018C91.952 56.4776 93.393 55.7571 94.7439 55.4869C96.0948 55.1267 97.806 54.2261 98.5265 53.4156C100.148 51.8845 100.508 48.5523 99.0668 48.5523C98.6165 48.5523 98.1662 48.8225 98.1662 49.1827C98.1662 49.633 96.9954 50.5336 95.6445 51.3442C93.1228 52.7851 93.0328 52.6951 90.6912 50.1734C88.5297 47.9218 88.1695 47.8318 87.6291 49.0926Z" fill="white"/>
<path d="M0 50.0833C0 52.5149 1.08073 53.5957 4.5931 55.1267C7.83529 56.4776 7.92535 56.3876 9.09614 54.3162C9.72656 53.1454 10.5371 52.1547 10.9874 52.1547C11.3477 52.1547 11.7079 51.3442 11.7079 50.3535C11.7079 47.9218 10.357 48.102 8.37565 50.7137L6.75456 52.7851L3.42231 50.7137C0.360243 48.7324 0 48.7324 0 50.0833Z" fill="white"/>
<path d="M9.6365 55.3068C8.73589 56.5677 8.28559 58.0087 8.64583 58.549C9.36632 59.7198 5.58377 58.7291 3.78255 57.2882C1.98134 55.8472 1.35091 57.2882 2.70182 59.8099C3.51237 61.3409 5.0434 62.2415 7.47504 62.6918C9.45638 63.1421 11.2576 63.9527 11.5278 64.5831C11.9781 65.934 9.54644 66.0241 7.1148 64.7632C5.67383 63.9527 5.40365 64.1328 5.40365 65.5738C5.40365 67.8253 7.92535 69.2663 11.888 69.2663C13.5992 69.2663 15.4905 69.8066 16.1209 70.347C16.8414 70.9774 17.2016 71.0675 16.9314 70.6172C16.6612 70.0768 16.7513 68.906 17.2016 67.9153C17.832 66.4744 17.9221 66.5644 17.742 68.8159C17.5618 71.4277 17.3817 71.5178 13.329 71.4277C9.1862 71.4277 9.09614 71.4277 10.2669 73.2289C11.3477 74.76 12.3383 75.1202 16.0308 74.85C19.0929 74.6699 20.804 75.0301 21.6146 76.0208C22.6053 77.1916 22.245 77.3717 18.9128 77.3717C15.0401 77.3717 14.4097 78.5425 17.2917 80.4338C18.2823 81.0642 19.8134 80.9741 22.3351 80.1636C24.9468 79.263 26.3878 79.263 27.5586 79.8934C28.9996 80.704 28.7294 80.9741 25.4872 81.5145C21.0742 82.235 20.6239 83.2257 23.9562 84.7567C25.9375 85.6573 26.8381 85.5672 29.72 83.8561C31.6113 82.7754 33.8628 82.1449 34.6734 82.4151C35.8442 82.8654 36.0243 82.5052 35.574 80.4338C35.0336 77.9121 35.0336 77.9121 36.3845 79.5332C37.1951 80.5238 37.8255 81.6046 37.8255 81.8748C37.8255 82.235 35.8442 83.4958 33.4125 84.7567L28.9095 87.0082L31.2511 88.0889C33.6827 89.1697 35.0336 88.7194 39.4466 84.7567C41.1578 83.2257 41.3379 82.5952 40.5273 80.4338L39.6267 77.822L41.8782 80.5238L44.2198 83.2257L40.9776 86.0176C39.2665 87.5486 38.0957 89.0796 38.4559 89.3498C39.7168 90.7007 42.6888 89.8902 44.7602 87.6386C47.372 84.8468 49.4434 85.8374 47.7322 88.9896C47.1918 90.0703 46.9217 91.4212 47.1918 92.0516C47.372 92.682 47.6421 92.5019 47.6421 91.6914C47.7322 90.8808 48.2726 89.71 48.9931 89.1697C49.9837 88.2691 50.5241 88.4492 51.2446 89.71C51.7849 90.6106 52.2352 90.8808 52.2352 90.2504C52.2352 89.71 51.7849 88.8995 51.2446 88.6293C50.7042 88.2691 50.5241 87.3685 50.7943 86.648C51.0644 85.9275 50.9744 85.5672 50.6141 85.8374C49.3533 86.5579 48.1825 85.1169 46.7415 81.5145C45.4807 78.0021 45.3906 77.9121 38.9062 76.8314C35.3038 76.2009 31.3411 75.1202 30.1704 74.3097C26.8381 72.1482 25.8474 72.5084 26.4779 75.5705C26.748 77.0115 26.658 78.2723 26.2077 78.2723C24.7667 78.2723 24.4965 77.1916 25.217 74.5798C25.7574 72.7786 25.6673 71.6078 24.9468 70.9774C20.0835 66.8346 18.1923 65.0334 17.742 63.5924C16.9314 61.3409 15.5805 61.7011 14.9501 64.3129C14.5898 65.5738 13.9594 66.3843 13.5091 66.1141C12.9687 65.7539 13.1489 64.5831 13.9594 62.962C15.3103 60.4403 14.9501 57.5583 13.4191 57.5583C12.9687 57.5583 12.3383 58.6391 12.0681 59.8999C11.7079 61.3409 11.1675 61.8813 10.6272 61.3409C9.99674 60.7105 10.447 59.4496 11.7079 57.7385C12.7886 56.2074 13.4191 54.5863 13.1489 54.046C12.2483 52.605 11.4377 52.8752 9.6365 55.3068ZM22.5152 72.9587C22.5152 74.4898 22.1549 75.4804 21.6146 75.1202C21.1643 74.85 20.714 73.5892 20.714 72.3283C20.714 71.1575 21.1643 70.1669 21.6146 70.1669C22.1549 70.1669 22.5152 71.4277 22.5152 72.9587ZM31.7914 79.1729C32.0616 80.1636 31.9716 80.9741 31.5213 80.9741C30.8008 80.9741 29.72 78.8127 29.72 77.2817C29.72 75.7506 31.2511 77.1916 31.7914 79.1729Z" fill="white"/>
<path d="M86.7285 54.4062C86.4583 55.3068 86.9086 57.1981 87.7192 58.6391C88.6198 60.0801 89.1602 61.521 88.89 61.7912C88.6198 61.9713 87.8092 61.0707 87.0888 59.6297C85.8279 57.3782 85.6478 57.2882 85.0174 58.8192C84.6571 59.7198 84.8372 61.7912 85.3776 63.2322C85.918 64.7632 86.2782 66.2042 86.008 66.3843C85.8279 66.6545 85.1975 65.7539 84.6571 64.403C84.2068 63.0521 83.3963 62.1515 82.946 62.4216C81.7752 63.1421 81.1447 66.4744 82.0453 67.1048C82.4957 67.375 82.8559 68.3656 82.8559 69.4464C82.8559 70.7973 83.2161 71.0675 84.0267 70.437C84.5671 69.9867 86.5484 69.5364 88.2595 69.3563C91.5017 69.0861 94.5638 67.1048 94.5638 65.2135C94.5638 64.3129 93.8433 64.3129 91.2316 65.2135C87.3589 66.5644 86.5484 66.2942 88.2595 64.3129C88.89 63.5924 90.5111 62.962 91.862 62.962C93.5731 62.962 95.1042 62.1514 96.275 60.6204C98.1662 58.1888 97.9861 55.8472 96.0948 57.3782C95.4644 57.8285 94.1135 58.459 93.1228 58.8192C91.5918 59.2695 90.9614 58.9093 90.0608 56.6577C88.6198 53.2354 87.5391 52.5149 86.7285 54.4062Z" fill="white"/>
<path d="M78.8032 67.6452C78.533 68.2756 78.4429 70.2569 78.623 71.9681L78.8032 75.1202H83.6664C87.5391 75.1202 88.7098 74.76 89.7005 73.319C90.8713 71.5178 90.7812 71.5178 86.0981 71.6979C82.8559 71.7879 81.3249 71.5178 81.3249 70.7973C81.4149 68.0054 80.9646 66.5644 80.1541 66.5644C79.6137 66.5644 78.9833 67.1048 78.8032 67.6452Z" fill="white"/>
<path d="M74.3902 70.9774C71.9586 73.6792 66.8251 75.8407 60.3407 76.9214C54.9371 77.822 54.3967 78.1823 52.9557 81.0642L51.4247 84.1263L54.4868 87.1883C56.9184 89.71 57.9091 90.0703 59.8904 89.62L62.322 88.9896L59.7103 87.0082C55.0271 83.4058 55.0271 83.3157 57.3687 80.5238C59.4401 78.0922 59.5302 78.4524 57.9991 82.3251C57.6389 83.3157 57.9991 83.676 59.5302 83.676C60.6109 83.676 61.2413 83.9461 60.9711 84.2163C60.3407 84.8468 63.4928 87.5486 65.8344 88.3591C66.5549 88.6293 68.0859 88.3591 69.1667 87.8188C71.148 86.738 71.0579 86.648 67.4555 85.1169C64.3934 83.766 63.9431 83.3157 65.204 82.5952C66.1947 82.0549 67.7257 82.3251 70.2474 83.766C73.2194 85.4772 74.2101 85.6573 76.1013 84.7567C79.3435 83.2257 78.8932 82.235 74.5703 81.5145C71.3281 80.9741 70.9679 80.704 72.0486 79.8034C72.8592 79.1729 73.3095 78.0021 73.1293 77.1916C72.9492 76.291 73.3095 74.9401 73.8498 74.0395C74.6604 72.6886 74.7504 72.8687 74.4803 75.3904C74.2101 77.9121 74.5703 78.5425 76.6417 79.7133C79.7038 81.2443 82.1354 81.3344 83.5764 79.8934C85.2875 78.1823 84.8372 77.6419 81.0547 77.0115C77.5423 76.4711 77.4523 76.381 77.4523 72.8687C77.4523 68.906 76.7318 68.4557 74.3902 70.9774ZM70.0673 77.5518C69.7971 79.6232 68.7164 80.9741 67.2754 80.9741C66.9151 80.9741 67.1853 79.7133 67.9959 78.2723C69.617 75.0301 70.4275 74.7599 70.0673 77.5518ZM64.0332 80.4338C63.4928 81.6946 62.6823 82.7754 62.1419 82.7754C61.6016 82.7754 61.7817 81.6046 62.5922 79.9835C64.3034 76.7413 65.2941 77.0115 64.0332 80.4338Z" fill="white"/>
</svg>
